<svg width="78" height="24" viewBox="0 0 78 24" fill="none" xmlns="http://www.w3.org/2000/svg">
<path d="M41.0664 6.03003C41.0664 6.89489 40.3697 7.59159 39.5048 7.59159C38.64 7.59159 37.9433 6.89489 37.9433 6.03003C37.9433 5.16516 38.616 4.46847 39.5048 4.46847C40.3937 4.49249 41.0664 5.18919 41.0664 6.03003ZM34.628 9.17718C34.628 9.32132 34.628 9.56156 34.628 9.56156C34.628 9.56156 33.8832 8.6006 32.2976 8.6006C29.679 8.6006 27.637 10.5946 27.637 13.3574C27.637 16.0961 29.655 18.1141 32.2976 18.1141C33.9072 18.1141 34.628 17.1291 34.628 17.1291V17.5375C34.628 17.7297 34.7721 17.8739 34.9643 17.8739H36.9103V8.84084C36.9103 8.84084 35.1325 8.84084 34.9643 8.84084C34.7721 8.84084 34.628 9.00901 34.628 9.17718ZM34.628 14.967C34.2676 15.4955 33.5469 15.952 32.682 15.952C31.1445 15.952 29.9673 14.991 29.9673 13.3574C29.9673 11.7237 31.1445 10.7628 32.682 10.7628C33.5229 10.7628 34.2916 11.2432 34.628 11.7477V14.967ZM38.3517 8.84084H40.658V17.8739H38.3517V8.84084ZM72.8021 8.6006C71.2166 8.6006 70.4718 9.56156 70.4718 9.56156V4.49249H68.1655V17.8739C68.1655 17.8739 69.9433 17.8739 70.1115 17.8739C70.3036 17.8739 70.4478 17.7057 70.4478 17.5375V17.1291C70.4478 17.1291 71.1925 18.1141 72.7781 18.1141C75.3967 18.1141 77.4388 16.0961 77.4388 13.3574C77.4388 10.6186 75.3967 8.6006 72.8021 8.6006ZM72.4178 15.9279C71.5289 15.9279 70.8322 15.4715 70.4718 14.9429V11.7237C70.8322 11.2432 71.6009 10.7387 72.4178 10.7387C73.9553 10.7387 75.1325 11.6997 75.1325 13.3333C75.1325 14.967 73.9553 15.9279 72.4178 15.9279ZM66.9643 12.5165V17.8979H64.658V12.7808C64.658 11.2913 64.1775 10.6907 62.8802 10.6907C62.1835 10.6907 61.4628 11.0511 61.0063 11.5796V17.8739H58.7V8.84084H60.5259C60.7181 8.84084 60.8622 9.00901 60.8622 9.17718V9.56156C61.5349 8.86486 62.4238 8.6006 63.3126 8.6006C64.3217 8.6006 65.1625 8.88889 65.8352 9.46547C66.652 10.1381 66.9643 11.003 66.9643 12.5165ZM53.1024 8.6006C51.5169 8.6006 50.7721 9.56156 50.7721 9.56156V4.49249H48.4658V17.8739C48.4658 17.8739 50.2436 17.8739 50.4118 17.8739C50.6039 17.8739 50.7481 17.7057 50.7481 17.5375V17.1291C50.7481 17.1291 51.4928 18.1141 53.0784 18.1141C55.697 18.1141 57.7391 16.0961 57.7391 13.3574C57.7631 10.6186 55.7211 8.6006 53.1024 8.6006ZM52.7181 15.9279C51.8292 15.9279 51.1325 15.4715 50.7721 14.9429V11.7237C51.1325 11.2432 51.9012 10.7387 52.7181 10.7387C54.2556 10.7387 55.4328 11.6997 55.4328 13.3333C55.4328 14.967 54.2556 15.9279 52.7181 15.9279ZM46.4718 8.6006C47.1685 8.6006 47.5289 8.72072 47.5289 8.72072V10.8589C47.5289 10.8589 45.6069 10.2102 44.4058 11.5796V17.8979H42.0994V8.84084C42.0994 8.84084 43.8772 8.84084 44.0454 8.84084C44.2376 8.84084 44.3817 9.00901 44.3817 9.17718V9.56156C44.8142 9.05706 45.7511 8.6006 46.4718 8.6006ZM22.5199 17.0571C22.3997 16.7688 22.2796 16.4565 22.1595 16.1922C21.9673 15.7598 21.7751 15.3514 21.607 14.967L21.5829 14.9429C19.9253 11.3393 18.1475 7.68769 16.2736 4.08408L16.2015 3.93994C16.0094 3.57958 15.8172 3.19519 15.625 2.81081C15.3847 2.37838 15.1445 1.92192 14.7601 1.48949C13.9913 0.528528 12.8862 0 11.7091 0C10.5079 0 9.42678 0.528529 8.63399 1.44144C8.27363 1.87387 8.00936 2.33033 7.76912 2.76276C7.57693 3.14715 7.38474 3.53153 7.19254 3.89189L7.12047 4.03604C5.27062 7.63964 3.46882 11.2913 1.81116 14.8949L1.78714 14.9429C1.61897 15.3273 1.42678 15.7357 1.23459 16.1682C1.11447 16.4324 0.994347 16.7207 0.874227 17.033C0.561915 17.9219 0.465819 18.7628 0.585939 19.6276C0.850203 21.4294 2.0514 22.9429 3.70906 23.6156C4.33369 23.8799 4.98233 24 5.65501 24C5.8472 24 6.08744 23.976 6.27963 23.952C7.07242 23.8559 7.88924 23.5916 8.68203 23.1351C9.66702 22.5826 10.604 21.7898 11.661 20.6366C12.7181 21.7898 13.679 22.5826 14.64 23.1351C15.4328 23.5916 16.2496 23.8559 17.0424 23.952C17.2346 23.976 17.4748 24 17.667 24C18.3397 24 19.0124 23.8799 19.613 23.6156C21.2946 22.9429 22.4718 21.4054 22.7361 19.6276C22.9283 18.7868 22.8322 17.9459 22.5199 17.0571ZM11.685 18.3063C10.3877 16.6727 9.5469 15.1351 9.25861 13.8378C9.13849 13.2853 9.11447 12.8048 9.18654 12.3724C9.23459 11.988 9.37873 11.6517 9.57092 11.3634C10.0274 10.7147 10.7961 10.3063 11.685 10.3063C12.5739 10.3063 13.3667 10.6907 13.7991 11.3634C13.9913 11.6517 14.1355 11.988 14.1835 12.3724C14.2556 12.8048 14.2316 13.3093 14.1115 13.8378C13.8232 15.1111 12.9823 16.6486 11.685 18.3063ZM21.2706 19.4354C21.1025 20.6847 20.2616 21.7658 19.0844 22.2462C18.5079 22.4865 17.8832 22.5586 17.2586 22.4865C16.658 22.4144 16.0574 22.2222 15.4328 21.8619C14.5679 21.3814 13.7031 20.6366 12.694 19.5315C14.2796 17.5856 15.2406 15.8078 15.601 14.2222C15.7691 13.4775 15.7931 12.8048 15.7211 12.1802C15.625 11.5796 15.4088 11.027 15.0724 10.5465C14.3277 9.46547 13.0784 8.84084 11.685 8.84084C10.2916 8.84084 9.04239 9.48949 8.29765 10.5465C7.96131 11.027 7.7451 11.5796 7.649 12.1802C7.5529 12.8048 7.57693 13.5015 7.76912 14.2222C8.12948 15.8078 9.11447 17.6096 10.676 19.5556C9.69104 20.6607 8.80215 21.4054 7.93729 21.8859C7.31266 22.2462 6.71206 22.4384 6.11146 22.5105C5.46281 22.5826 4.83819 22.4865 4.28564 22.2703C3.10846 21.7898 2.26762 20.7087 2.09945 19.4595C2.02738 18.8589 2.07543 18.2583 2.31567 17.5856C2.38774 17.3453 2.50786 17.1051 2.62798 16.8168C2.79615 16.4324 2.98834 16.024 3.18053 15.6156L3.20456 15.5676C4.86221 11.988 6.63999 8.33634 8.48984 4.78078L8.56191 4.63664C8.75411 4.27628 8.9463 3.89189 9.13849 3.53153C9.33068 3.14715 9.5469 2.78679 9.81116 2.47447C10.3157 1.8979 10.9883 1.58559 11.7331 1.58559C12.4778 1.58559 13.1505 1.8979 13.655 2.47447C13.9193 2.78679 14.1355 3.14715 14.3277 3.53153C14.5199 3.89189 14.7121 4.27628 14.9043 4.63664L14.9763 4.78078C16.8022 8.36036 18.5799 12.012 20.2376 15.5916V15.6156C20.4298 16 20.5979 16.4324 20.7901 16.8168C20.9103 17.1051 21.0304 17.3453 21.1024 17.5856C21.2946 18.2102 21.3667 18.8108 21.2706 19.4354Z" fill="#FF5A5F"/>
</svg>
