<svg width="81" height="24" viewBox="0 0 81 24" fill="none" xmlns="http://www.w3.org/2000/svg">
<path fill-rule="evenodd" clip-rule="evenodd" d="M49.9284 18.7693C45.313 22.1819 38.5997 24.0001 32.8095 24.0001C24.6976 24.0001 17.4249 21.0071 11.8864 16.0281C11.4668 15.6365 11.8305 15.105 12.3619 15.4127C18.32 18.8812 25.6766 20.9512 33.285 20.9512C38.4039 20.9512 44.0542 19.8882 49.257 17.6784C50.0403 17.3707 50.6836 18.2099 49.9284 18.7693Z" fill="#FF9900"/>
<path fill-rule="evenodd" clip-rule="evenodd" d="M51.8586 16.5594C51.2711 15.8041 47.9425 16.1957 46.4599 16.3915C46.0124 16.4475 45.9285 16.0559 46.3481 15.7761C49.0054 13.902 53.3411 14.4615 53.8446 15.0768C54.3481 15.6922 53.7047 20.0559 51.2152 22.1258C50.8236 22.4335 50.4599 22.2657 50.6278 21.8461C51.1872 20.4475 52.446 17.3426 51.8586 16.5594Z" fill="#FF9900"/>
<path fill-rule="evenodd" clip-rule="evenodd" d="M46.5431 2.62937V0.811187C46.5431 0.531467 46.7389 0.363633 46.9906 0.363633H55.1025C55.3543 0.363633 55.578 0.559439 55.578 0.811187V2.34965C55.578 2.6014 55.3543 2.93706 54.9627 3.4965L50.7669 9.48252C52.3333 9.45455 53.9836 9.67832 55.3822 10.4615C55.6899 10.6294 55.7738 10.9091 55.8018 11.1608V13.0909C55.8018 13.3706 55.5221 13.6783 55.2144 13.5105C52.7249 12.1958 49.3962 12.0559 46.655 13.5385C46.3752 13.6783 46.0676 13.3986 46.0676 13.1189V11.2727C46.0676 10.993 46.0676 10.4895 46.3752 10.042L51.2424 3.07692H47.0186C46.7669 3.07692 46.5431 2.88112 46.5431 2.62937ZM16.9766 13.9021H14.5151C14.2913 13.8741 14.0955 13.7063 14.0676 13.4825V0.839161C14.0676 0.587413 14.2913 0.391607 14.5431 0.391607H16.8368C17.0885 0.391607 17.2564 0.587411 17.2843 0.811187V2.46154H17.3403C17.9277 0.86713 19.0745 0.111886 20.585 0.111886C22.1235 0.111886 23.1025 0.86713 23.7738 2.46154C24.3613 0.86713 25.7319 0.111886 27.1864 0.111886C28.2214 0.111886 29.3403 0.531467 30.0396 1.51049C30.8228 2.57343 30.655 4.11189 30.655 5.48252V13.4825C30.655 13.7343 30.4312 13.9301 30.1794 13.9301H27.7459C27.4941 13.9021 27.2983 13.7063 27.2983 13.4825V6.76923C27.2983 6.23776 27.3543 4.8951 27.2424 4.3916C27.0466 3.55244 26.5151 3.3007 25.7878 3.3007C25.2004 3.3007 24.5571 3.69231 24.3053 4.33566C24.0536 4.97902 24.0815 6.04195 24.0815 6.76923V13.4825C24.0815 13.7343 23.8578 13.9301 23.606 13.9301H21.1445C20.8927 13.9021 20.6969 13.7063 20.6969 13.4825V6.76923C20.6969 5.37062 20.9207 3.27272 19.1864 3.27272C17.4242 3.27272 17.4801 5.28671 17.4801 6.76923V13.4825C17.4522 13.7063 17.2564 13.9021 16.9766 13.9021ZM62.5711 0.111886C66.2354 0.111886 68.2214 3.24475 68.2214 7.24475C68.2214 11.1049 66.0396 14.1818 62.5711 14.1818C58.9906 14.1818 57.0326 11.049 57.0326 7.13287C57.0046 3.18881 58.9906 0.111886 62.5711 0.111886ZM62.5711 2.71328C60.7529 2.71328 60.641 5.2028 60.641 6.74126C60.641 8.27972 60.613 11.5804 62.5431 11.5804C64.4452 11.5804 64.5571 8.92308 64.5571 7.3007C64.5571 6.23776 64.5011 4.95105 64.1934 3.94406C63.9137 3.04895 63.3543 2.71328 62.5711 2.71328ZM72.9487 13.9021H70.4871C70.2354 13.8741 70.0396 13.6783 70.0396 13.4545V0.783213C70.0676 0.559437 70.2634 0.363633 70.5151 0.363633H72.8088C73.0326 0.363633 73.2004 0.53147 73.2564 0.727274V2.65734H73.3123C74.0116 0.923077 74.9627 0.111886 76.669 0.111886C77.7599 0.111886 78.8508 0.503491 79.5501 1.5944C80.1934 2.60139 80.1934 4.30769 80.1934 5.53846V13.5105C80.1655 13.7343 79.9697 13.9021 79.7179 13.9021H77.2564C77.0326 13.8741 76.8368 13.7063 76.8088 13.5105V6.62937C76.8088 5.23076 76.9766 3.21678 75.2704 3.21678C74.6829 3.21678 74.1235 3.60839 73.8438 4.22378C73.5081 5.007 73.4522 5.76223 73.4522 6.62937V13.4545C73.4242 13.7063 73.2004 13.9021 72.9487 13.9021ZM40.0815 7.86014C40.0815 8.81119 40.1095 9.62238 39.634 10.4895C39.2424 11.1888 38.627 11.6084 37.9277 11.6084C36.9766 11.6084 36.4172 10.8811 36.4172 9.81818C36.4172 7.72028 38.2913 7.32867 40.0815 7.32867V7.86014ZM42.5711 13.8741C42.4032 14.014 42.1794 14.042 41.9836 13.9301C41.1724 13.2587 41.0046 12.9231 40.5571 12.2797C39.2144 13.6503 38.2354 14.0699 36.5011 14.0699C34.4312 14.0699 32.8088 12.7832 32.8088 10.2378C32.8088 8.22378 33.8997 6.88111 35.4382 6.20979C36.7808 5.62237 38.655 5.51049 40.0815 5.34266V5.03497C40.0815 4.44755 40.1375 3.74825 39.7738 3.24476C39.4662 2.7972 38.9067 2.6014 38.4032 2.6014C37.4522 2.6014 36.613 3.07693 36.4172 4.08392C36.3613 4.30769 36.2214 4.53146 35.9976 4.53146L33.62 4.27972C33.4242 4.22377 33.2004 4.08392 33.2564 3.77622C33.8158 0.867133 36.4172 0 38.7669 0C39.9697 0 41.5361 0.307691 42.4871 1.23077C43.6899 2.34965 43.578 3.86014 43.578 5.48252V9.31468C43.578 10.4615 44.0536 10.965 44.5011 11.6084C44.669 11.8322 44.6969 12.1119 44.5011 12.2517C43.9697 12.6713 43.0745 13.4545 42.5711 13.8741ZM7.77385 7.86014C7.77385 8.81119 7.80182 9.62238 7.32629 10.4895C6.93468 11.1888 6.3193 11.6084 5.62 11.6084C4.66895 11.6084 4.10951 10.8811 4.10951 9.81818C4.10951 7.72028 5.98364 7.32867 7.77385 7.32867V7.86014ZM10.2354 13.8741C10.0675 14.014 9.84378 14.042 9.64797 13.9301C8.83678 13.2587 8.66895 12.9231 8.2214 12.2797C6.87874 13.6503 5.89972 14.0699 4.16545 14.0699C2.09552 14.0699 0.473145 12.7832 0.473145 10.2378C0.473145 8.22378 1.56405 6.88111 3.10251 6.20979C4.44517 5.62237 6.3193 5.51049 7.74587 5.34266V5.03497C7.74587 4.44755 7.80182 3.74825 7.43818 3.24476C7.13049 2.7972 6.57105 2.6014 6.06755 2.6014C5.1165 2.6014 4.27734 3.07693 4.08153 4.08392C4.02559 4.30769 3.88573 4.53146 3.66195 4.53146L1.28433 4.27972C1.08853 4.22377 0.864755 4.08392 0.920699 3.77622C1.48014 0.867133 4.08154 0 6.43119 0C7.63399 0 9.20042 0.307691 10.1515 1.23077C11.3543 2.34965 11.2424 3.86014 11.2424 5.48252V9.31468C11.2424 10.4615 11.7179 10.965 12.1655 11.6084C12.3333 11.8322 12.3613 12.1119 12.1655 12.2517C11.634 12.6713 10.7389 13.4545 10.2354 13.8741Z" fill="black"/>
</svg>
