<svg width="60" height="60" viewBox="0 0 60 60" fill="none" xmlns="http://www.w3.org/2000/svg">
<rect width="60" height="60" rx="30" fill="#EDF7FE"/>
<path d="M19.0606 41.0677C17.6576 41.0677 16.5222 40.6523 15.6545 39.8216C14.8053 38.9723 14.3806 37.837 14.3806 36.4154C14.3806 35.9354 14.4176 35.5016 14.4914 35.1139L15.876 27.1939C16.2083 25.3293 16.9191 23.8708 18.0083 22.8185C19.116 21.7662 20.4822 21.24 22.1068 21.24H25.0422C26.5006 21.24 27.6453 21.6554 28.476 22.4862C29.3068 23.317 29.7222 24.4339 29.7222 25.837C29.7222 26.2247 29.676 26.677 29.5837 27.1939L28.1991 35.1139C27.8668 36.9785 27.156 38.437 26.0668 39.4893C24.9776 40.5416 23.6206 41.0677 21.996 41.0677H19.0606ZM21.9406 39.6831C23.1591 39.6831 24.1837 39.277 25.0145 38.4647C25.8637 37.6523 26.4176 36.5354 26.676 35.1139L28.0606 27.1939C28.1345 26.8247 28.1714 26.437 28.1714 26.0308C28.1714 24.9785 27.8853 24.1477 27.3129 23.5385C26.7406 22.9108 25.956 22.597 24.9591 22.597H22.1345C20.8976 22.597 19.8637 23.0031 19.0329 23.8154C18.2022 24.6277 17.6576 25.7539 17.3991 27.1939L16.0145 35.1139C15.9406 35.4647 15.9037 35.8431 15.9037 36.2493C15.9037 37.3016 16.1899 38.1416 16.7622 38.7693C17.3345 39.3785 18.1191 39.6831 19.116 39.6831H21.9406ZM36.0823 41.0677C34.7162 41.0677 33.6269 40.717 32.8146 40.0154C32.0208 39.2954 31.6239 38.3447 31.6239 37.1631C31.6239 36.8493 31.6515 36.5262 31.7069 36.1939H33.2023C33.1654 36.36 33.1469 36.6093 33.1469 36.9416C33.1469 37.7908 33.4054 38.4647 33.9223 38.9631C34.4392 39.4431 35.1592 39.6831 36.0823 39.6831H38.7131C39.9131 39.6831 40.91 39.3508 41.7039 38.6862C42.4977 38.0031 42.9962 37.0708 43.1992 35.8893L43.5315 34.117C43.5685 33.7847 43.5869 33.5539 43.5869 33.4247C43.5869 32.5385 43.2915 31.8462 42.7008 31.3477C42.11 30.8308 41.2885 30.5723 40.2362 30.5723H33.3962L35.03 21.4616H46.5777L46.3285 22.8185H36.3039L35.1685 29.1877H40.2639C41.7592 29.1877 42.9408 29.5477 43.8085 30.2677C44.6946 30.9877 45.1377 31.957 45.1377 33.1754C45.1377 33.4708 45.11 33.7847 45.0546 34.117L44.7223 35.8893C44.4269 37.5139 43.7439 38.7877 42.6731 39.7108C41.6208 40.6154 40.3008 41.0677 38.7131 41.0677H36.0823Z" fill="#111111"/>
</svg>
