<svg width="60" height="60" viewBox="0 0 60 60" fill="none" xmlns="http://www.w3.org/2000/svg">
<rect width="60" height="60" rx="30" fill="#EDF7FE"/>
<path d="M19.0606 41.0676C17.6576 41.0676 16.5222 40.6522 15.6545 39.8215C14.8053 38.9722 14.3806 37.8368 14.3806 36.4153C14.3806 35.9353 14.4176 35.5015 14.4914 35.1138L15.876 27.1938C16.2083 25.3291 16.9191 23.8707 18.0083 22.8184C19.116 21.7661 20.4822 21.2399 22.1068 21.2399H25.0422C26.5006 21.2399 27.6453 21.6553 28.476 22.4861C29.3068 23.3168 29.7222 24.4338 29.7222 25.8368C29.7222 26.2245 29.676 26.6768 29.5837 27.1938L28.1991 35.1138C27.8668 36.9784 27.156 38.4368 26.0668 39.4891C24.9776 40.5415 23.6206 41.0676 21.996 41.0676H19.0606ZM21.9406 39.683C23.1591 39.683 24.1837 39.2768 25.0145 38.4645C25.8637 37.6522 26.4176 36.5353 26.676 35.1138L28.0606 27.1938C28.1345 26.8245 28.1714 26.4368 28.1714 26.0307C28.1714 24.9784 27.8853 24.1476 27.3129 23.5384C26.7406 22.9107 25.956 22.5968 24.9591 22.5968H22.1345C20.8976 22.5968 19.8637 23.003 19.0329 23.8153C18.2022 24.6276 17.6576 25.7538 17.3991 27.1938L16.0145 35.1138C15.9406 35.4645 15.9037 35.843 15.9037 36.2491C15.9037 37.3015 16.1899 38.1415 16.7622 38.7691C17.3345 39.3784 18.1191 39.683 19.116 39.683H21.9406ZM40.7623 36.7199H31.9285C31.1531 36.7199 30.8208 36.4153 30.9315 35.8061L31.0423 35.3076L43.5039 21.4615H44.9715L42.5069 35.363H44.9439L44.7223 36.7199H42.2854L41.5377 40.8461H40.0146L40.7623 36.7199ZM41.0669 35.363L43.1162 23.8153H43.0885L32.7315 35.363H41.0669Z" fill="#111111"/>
</svg>
