
<svg width="74" height="24" viewBox="0 0 74 24" fill="none" xmlns="http://www.w3.org/2000/svg">
<path d="M71.3245 14.6568L73.3571 16.0119C72.6974 16.9837 71.1194 18.6508 68.3913 18.6508C65.0035 18.6508 62.4805 16.0297 62.4805 12.6954C62.4805 9.14712 65.0302 6.73999 68.106 6.73999C71.1996 6.73999 72.7152 9.20061 73.2056 10.529L73.473 11.2066L65.5028 14.5052C66.109 15.6999 67.054 16.3061 68.3913 16.3061C69.7286 16.3061 70.6558 15.6464 71.3245 14.6568ZM65.0748 12.5082L70.3973 10.2972C70.1031 9.55723 69.2294 9.03122 68.1863 9.03122C66.8579 9.03122 65.0124 10.208 65.0748 12.5082Z" fill="#FF302F"/>
<path d="M58.6379 0.668701H61.2055V18.107H58.6379V0.668701Z" fill="#20B15A"/>
<path d="M54.5901 7.20347H57.0686V17.7948C57.0686 22.1901 54.4742 23.9999 51.4074 23.9999C48.5188 23.9999 46.7803 22.0564 46.1295 20.4784L48.4029 19.5333C48.813 20.5051 49.8026 21.6552 51.4074 21.6552C53.3776 21.6552 54.5901 20.4338 54.5901 18.1515V17.2956H54.501C53.9126 18.0088 52.7892 18.6507 51.3628 18.6507C48.3851 18.6507 45.657 16.0564 45.657 12.7131C45.657 9.35206 48.3851 6.73096 51.3628 6.73096C52.7803 6.73096 53.9126 7.36394 54.501 8.05934H54.5901V7.20347ZM54.7684 12.7131C54.7684 10.6091 53.3687 9.07568 51.5857 9.07568C49.7848 9.07568 48.2692 10.6091 48.2692 12.7131C48.2692 14.7904 49.7848 16.2971 51.5857 16.2971C53.3687 16.306 54.7684 14.7904 54.7684 12.7131Z" fill="#3686F7"/>
<path d="M31.562 12.6687C31.562 16.1011 28.8874 18.6241 25.6065 18.6241C22.3257 18.6241 19.6511 16.0922 19.6511 12.6687C19.6511 9.21846 22.3257 6.70435 25.6065 6.70435C28.8874 6.70435 31.562 9.21846 31.562 12.6687ZM28.9587 12.6687C28.9587 10.529 27.4074 9.05799 25.6065 9.05799C23.8057 9.05799 22.2544 10.529 22.2544 12.6687C22.2544 14.7905 23.8057 16.2794 25.6065 16.2794C27.4074 16.2794 28.9587 14.7905 28.9587 12.6687Z" fill="#FF302F"/>
<path d="M44.5695 12.6954C44.5695 16.1278 41.8949 18.6508 38.6141 18.6508C35.3333 18.6508 32.6587 16.1278 32.6587 12.6954C32.6587 9.24519 35.3333 6.73999 38.6141 6.73999C41.8949 6.73999 44.5695 9.23628 44.5695 12.6954ZM41.9574 12.6954C41.9574 10.5557 40.4061 9.08472 38.6052 9.08472C36.8043 9.08472 35.253 10.5557 35.253 12.6954C35.253 14.8173 36.8043 16.3061 38.6052 16.3061C40.415 16.3061 41.9574 14.8083 41.9574 12.6954Z" fill="#FFBA40"/>
<path d="M9.8622 16.0386C6.12668 16.0386 3.20247 13.0253 3.20247 9.28975C3.20247 5.55423 6.12668 2.54086 9.8622 2.54086C11.8771 2.54086 13.3481 3.33432 14.4357 4.35067L16.2277 2.55869C14.7121 1.1055 12.6883 0 9.8622 0C4.74481 0 0.438721 4.17236 0.438721 9.28975C0.438721 14.4071 4.74481 18.5795 9.8622 18.5795C12.6259 18.5795 14.7121 17.6701 16.3436 15.9762C18.0197 14.3001 18.5368 11.9465 18.5368 10.0386C18.5368 9.44131 18.4655 8.82615 18.3852 8.37147H9.8622V10.8499H15.9335C15.7552 12.4012 15.2649 13.4621 14.5427 14.1842C13.669 15.0669 12.2872 16.0386 9.8622 16.0386Z" fill="#3686F7"/>
</svg>
