<svg width="144" height="41" viewBox="0 0 144 41" fill="none" xmlns="http://www.w3.org/2000/svg">
<path d="M39.999 0.664795H20.3049L16.0528 4.91858H4.25281V16.6077L-0.000976562 20.8598V40.6648H19.6965L23.9486 36.411H35.7486V24.7253L39.999 20.4732V0.664795ZM33.6965 34.364H6.30155V6.969H33.6965V34.364Z" fill="#00368C"/>
<path d="M30.9868 20.6648C30.9871 22.8378 30.3431 24.962 29.1362 26.7689C27.9292 28.5758 26.2136 29.9843 24.2062 30.8161C22.1988 31.648 19.9898 31.8659 17.8585 31.4423C15.7273 31.0187 13.7695 29.9726 12.2328 28.4364C10.696 26.9001 9.64935 24.9426 9.22511 22.8115C8.80086 20.6804 9.0181 18.4713 9.84934 16.4637C10.6806 14.456 12.0885 12.7399 13.895 11.5324C15.7016 10.3249 17.8256 9.68026 19.9986 9.67993C22.9122 9.67993 25.7066 10.8372 27.7672 12.8971C29.8278 14.9571 30.9859 17.7511 30.9868 20.6648Z" fill="#FFCE00"/>
<path d="M23.6337 20.448L22.5278 21.5572L24.8925 23.9169L22.5278 26.2833L23.6337 27.3892L27.106 23.9169L23.6337 20.448Z" fill="#00368C"/>
<path d="M25.1376 14.4011L13.7578 25.781L14.8637 26.8902L26.2469 15.507L25.1376 14.4011Z" fill="#00368C"/>
<path d="M17.4727 19.7809L15.1097 17.4178L17.4727 15.0531L16.3668 13.9456L12.8945 17.4178L16.3668 20.8884L17.4727 19.7809Z" fill="#00368C"/>
<path d="M143.492 21.7524H46.749V35.7054H143.492V21.7524Z" fill="#FFCE00"/>
<path d="M51.0515 7.38754H46.749V5.78418H57.1944V7.38754H52.8919V19.3422H51.0515V7.38754Z" fill="#00368C"/>
<path d="M58.8979 5.78418H60.7383V19.3472H58.8979V5.78418Z" fill="#00368C"/>
<path d="M63.4121 5.78418H65.1163L69.8222 14.485L74.4138 5.78418H76.1197V19.3472H74.3214V9.23628L70.755 15.8985C70.6456 16.1226 70.4983 16.3261 70.3197 16.5002C70.1876 16.6123 70.019 16.6721 69.8457 16.6682H69.3214L65.234 9.23628V19.3506H63.4121V5.78418Z" fill="#00368C"/>
<path d="M79.0015 18.9607C78.8652 18.8202 78.7594 18.6529 78.6909 18.4696C78.6223 18.2862 78.5925 18.0906 78.6032 17.8951V5.78418H88.1175V7.38754H80.4452V11.6161H87.536V13.206H80.4452V17.7439H88.1175V19.3506H80.0772C79.8809 19.3609 79.6845 19.3318 79.4998 19.2648C79.315 19.1978 79.1456 19.0944 79.0015 18.9607Z" fill="#00368C"/>
<path d="M91.7015 18.8831C91.0037 18.4701 90.4412 17.8627 90.083 17.1352C89.6878 16.3176 89.492 15.4179 89.5116 14.51V10.6276C89.4922 9.71859 89.6917 8.81822 90.0931 8.0024C90.4578 7.27207 91.0264 6.66316 91.7301 6.24946C92.4764 5.82498 93.3238 5.61066 94.1822 5.62929H96.236C97.0505 5.6145 97.8549 5.8114 98.5704 6.20072C99.237 6.57074 99.7822 7.12587 100.14 7.79904C100.519 8.52881 100.708 9.34183 100.691 10.1637H98.8898C98.8898 9.29764 98.6477 8.60016 98.1637 8.07131C97.9189 7.80737 97.6198 7.59963 97.287 7.46239C96.9542 7.32515 96.5957 7.26168 96.236 7.27635H94.1822C93.7929 7.26477 93.4062 7.34251 93.0516 7.50362C92.6971 7.66473 92.3841 7.90492 92.1368 8.20576C91.6147 8.82649 91.3531 9.64722 91.3519 10.668V14.4646C91.3519 15.4853 91.604 16.3055 92.1082 16.9251C92.3447 17.2256 92.6484 17.4663 92.9949 17.628C93.3414 17.7897 93.721 17.8679 94.1032 17.8562H96.1973C96.5741 17.8693 96.9488 17.7959 97.2929 17.6418C97.6369 17.4877 97.9411 17.2569 98.1822 16.9671C98.6797 16.3789 98.9284 15.6069 98.9284 14.6511H100.73C100.748 15.5327 100.555 16.4057 100.167 17.1974C99.8156 17.9085 99.2635 18.501 98.5788 18.9016C97.8532 19.3133 97.0297 19.5211 96.1956 19.5033H94.1032C93.2611 19.5194 92.4306 19.3049 91.7015 18.8831Z" fill="#00368C"/>
<path d="M102.475 5.78418H104.315V11.7136H111.407V5.78418H113.266V19.3472H111.407V13.3405H104.315V19.3472H102.475V5.78418Z" fill="#00368C"/>
<path d="M123.517 15.7908H117.858L116.542 19.3555H114.621L119.873 5.79248H120.714C121.274 5.79248 121.666 6.09612 121.89 6.70341L126.752 19.3555H124.853L123.517 15.7908ZM118.401 14.2412H122.974L120.707 8.11013H120.688L118.401 14.2412Z" fill="#00368C"/>
<path d="M128.302 5.78418H130.15V19.3472H128.302V5.78418Z" fill="#00368C"/>
<path d="M132.816 5.78418H134.522L141.692 16.3842V5.78418H143.493V19.3472H141.813L134.621 8.78754V19.3472H132.816V5.78418Z" fill="#00368C"/>
<path d="M51.6493 31.8109C51.4729 31.6499 51.3338 31.4523 51.2418 31.232C51.1498 31.0117 51.107 30.7739 51.1165 30.5353H52.0997C52.0951 30.6561 52.1159 30.7766 52.1607 30.889C52.2056 31.0013 52.2736 31.103 52.3602 31.1874C52.5501 31.3592 52.8003 31.4486 53.056 31.4361H54.0107C54.2417 31.4471 54.4711 31.3929 54.6728 31.2798C54.7482 31.2389 54.8112 31.1784 54.8553 31.1048C54.8994 31.0312 54.9228 30.9471 54.9233 30.8613V30.547C54.9231 30.49 54.9111 30.4337 54.8879 30.3816C54.8648 30.3295 54.831 30.2828 54.7888 30.2445C54.6836 30.15 54.5536 30.0875 54.414 30.0647L52.5283 29.7403C52.1723 29.6885 51.84 29.5317 51.5737 29.2899C51.4612 29.1895 51.3712 29.0664 51.3096 28.9289C51.2479 28.7913 51.2159 28.6423 51.2157 28.4916V28.1336C51.2102 27.9336 51.2532 27.7353 51.341 27.5556C51.4288 27.3759 51.5588 27.2202 51.7199 27.1016C52.12 26.8235 52.6013 26.6863 53.088 26.7117H54.0006C54.4772 26.6884 54.9448 26.8477 55.3081 27.1571C55.4712 27.3054 55.6 27.4875 55.6853 27.6907C55.7707 27.8939 55.8106 28.1133 55.8023 28.3336H54.814C54.8153 28.2293 54.7952 28.1258 54.7551 28.0296C54.7149 27.9333 54.6555 27.8463 54.5804 27.7739C54.5024 27.7022 54.4111 27.6466 54.3116 27.6102C54.2121 27.5739 54.1064 27.5576 54.0006 27.5621H53.1081C52.8842 27.552 52.6625 27.6106 52.4728 27.7302C52.4001 27.7765 52.3404 27.8406 52.2995 27.9166C52.2586 27.9925 52.2378 28.0776 52.2392 28.1638V28.4361C52.24 28.4949 52.254 28.5528 52.2801 28.6055C52.3063 28.6581 52.344 28.7042 52.3905 28.7403C52.5041 28.8327 52.6385 28.8962 52.7821 28.9252L54.6812 29.2613C55.0237 29.3105 55.3434 29.4616 55.5989 29.6949C55.7093 29.7931 55.7978 29.9134 55.8586 30.0481C55.9194 30.1827 55.9512 30.3287 55.9518 30.4764V30.9C55.9543 31.099 55.907 31.2955 55.8143 31.4716C55.7215 31.6477 55.5862 31.7978 55.4207 31.9084C55.0066 32.1831 54.5155 32.3186 54.0191 32.2949H53.0644C52.5481 32.3209 52.0415 32.1476 51.6493 31.8109Z" fill="#00368C"/>
<path d="M57.6697 31.7574C57.3357 31.3696 57.1631 30.8686 57.1873 30.3574V26.7893H58.1957V30.3843C58.1838 30.6493 58.2646 30.9102 58.4243 31.1221C58.4947 31.2125 58.5854 31.2852 58.689 31.3342C58.7926 31.3833 58.9063 31.4073 59.0209 31.4044H59.673C59.8307 31.4023 59.9864 31.3684 60.1307 31.3049C60.2751 31.2414 60.4052 31.1495 60.5134 31.0347C60.7722 30.7821 60.9481 30.4568 61.0176 30.1019V26.7893H62.026V32.2078H61.0713V31.4212C60.9004 31.6727 60.6781 31.8852 60.4192 32.0448C60.1911 32.1979 59.9242 32.283 59.6495 32.2902H58.9537C58.7137 32.3006 58.4744 32.2582 58.2526 32.1662C58.0307 32.0741 57.8318 31.9346 57.6697 31.7574Z" fill="#00368C"/>
<path d="M70.8659 27.186C71.1784 27.5522 71.3379 28.0247 71.3112 28.5053V32.2028H70.3028V28.4953C70.3159 28.2602 70.247 28.028 70.1079 27.8381C70.0487 27.7608 69.9724 27.6983 69.8848 27.6557C69.7973 27.6131 69.701 27.5916 69.6037 27.5927H69.0406C68.9117 27.59 68.7836 27.6143 68.6646 27.664C68.5456 27.7138 68.4384 27.788 68.3499 27.8818C68.1525 28.1004 68.029 28.3756 67.9969 28.6684V32.2079H66.9768V28.539C66.9909 28.2939 66.928 28.0507 66.7969 27.8432C66.7441 27.7642 66.6722 27.6999 66.5879 27.6561C66.5036 27.6123 66.4096 27.5905 66.3146 27.5927H65.7616C65.6233 27.5943 65.487 27.6268 65.3628 27.6879C65.2387 27.749 65.1297 27.837 65.044 27.9457C64.8294 28.2118 64.6974 28.5348 64.6642 28.8751V32.2079H63.6558V26.7894H64.6221V27.5171C64.7532 27.2796 64.9372 27.0754 65.16 26.9205C65.3518 26.7829 65.5811 26.7073 65.8171 26.7037H66.4474C66.7146 26.6974 66.9773 26.773 67.2003 26.9205C67.4224 27.076 67.597 27.2901 67.7045 27.5389C67.8445 27.2851 68.0462 27.0707 68.2911 26.9154C68.516 26.7758 68.7758 26.7024 69.0406 26.7037H69.681C69.9015 26.6947 70.1213 26.7332 70.3257 26.8164C70.5301 26.8996 70.7143 27.0256 70.8659 27.186Z" fill="#00368C"/>
<path d="M80.0949 27.186C80.4074 27.5522 80.5669 28.0247 80.5402 28.5053V32.2028H79.5318V28.4953C79.5449 28.2602 79.476 28.028 79.3369 27.8381C79.2777 27.7608 79.2014 27.6983 79.1138 27.6557C79.0263 27.6131 78.93 27.5916 78.8327 27.5927H78.2696C78.1407 27.59 78.0126 27.6143 77.8936 27.664C77.7746 27.7138 77.6674 27.788 77.5789 27.8818C77.3815 28.1004 77.258 28.3756 77.2259 28.6684V32.2079H76.2058V28.539C76.2199 28.2939 76.157 28.0507 76.0259 27.8432C75.9731 27.7642 75.9012 27.6999 75.8169 27.6561C75.7326 27.6123 75.6386 27.5905 75.5436 27.5927H74.9906C74.8523 27.5943 74.716 27.6268 74.5918 27.6879C74.4677 27.749 74.3587 27.837 74.273 27.9457C74.0584 28.2118 73.9264 28.5348 73.8932 28.8751V32.2079H72.8848V26.7894H73.8512V27.5171C73.9822 27.2796 74.1663 27.0754 74.389 26.9205C74.5808 26.7829 74.8101 26.7073 75.0461 26.7037H75.6764C75.9436 26.6974 76.2063 26.773 76.4293 26.9205C76.6514 27.076 76.826 27.2901 76.9335 27.5389C77.0735 27.2851 77.2752 27.0707 77.5201 26.9154C77.745 26.7758 78.0048 26.7024 78.2696 26.7037H78.91C79.1305 26.6947 79.3503 26.7332 79.5547 26.8164C79.7591 26.8996 79.9433 27.0256 80.0949 27.186Z" fill="#00368C"/>
<path d="M82.468 31.7455C82.2745 31.5611 82.1225 31.3376 82.0222 31.0898C81.9219 30.842 81.8757 30.5756 81.8865 30.3085V28.8094C81.8733 28.5279 81.9182 28.2468 82.0182 27.9834C82.1182 27.72 82.2714 27.48 82.468 27.2783C82.672 27.0837 82.9133 26.9325 83.1773 26.8337C83.4413 26.7349 83.7226 26.6906 84.0042 26.7035H84.8949C85.1695 26.6869 85.4445 26.729 85.7016 26.8269C85.9587 26.9248 86.1919 27.0764 86.3859 27.2715C86.5799 27.4665 86.7301 27.7007 86.8266 27.9583C86.923 28.2159 86.9635 28.4912 86.9454 28.7657V29.7858H82.8966V30.3085C82.8875 30.4563 82.9099 30.6043 82.9624 30.7427C83.0148 30.8811 83.0961 31.0068 83.2009 31.1114C83.3056 31.2159 83.4314 31.2971 83.5699 31.3493C83.7084 31.4015 83.8564 31.4237 84.0042 31.4144H84.8445C85.1308 31.4277 85.4124 31.3376 85.6378 31.1606C85.7363 31.0791 85.8149 30.9762 85.8676 30.8597C85.9203 30.7432 85.9458 30.6162 85.942 30.4884H86.9302C86.9385 30.7366 86.8911 30.9835 86.7913 31.211C86.6915 31.4384 86.542 31.6406 86.3538 31.8026C85.9286 32.1508 85.3902 32.3303 84.8411 32.3068H84.0159C83.7337 32.3201 83.4515 32.2773 83.1859 32.1809C82.9202 32.0846 82.6762 31.9366 82.468 31.7455ZM85.9369 28.9825V28.7657C85.9528 28.4501 85.8496 28.14 85.6479 27.8968C85.5543 27.7902 85.4382 27.7057 85.308 27.6496C85.1778 27.5935 85.0366 27.5671 84.8949 27.5724H84.0042C83.8537 27.5655 83.7037 27.5921 83.5648 27.6503C83.4258 27.7084 83.3015 27.7966 83.2008 27.9085C82.9889 28.1621 82.8803 28.4861 82.8966 28.8161V28.9842L85.9369 28.9825Z" fill="#00368C"/>
<path d="M88.3032 26.7892H89.2696V27.5825C89.4252 27.3338 89.6446 27.1312 89.9049 26.9959C90.1723 26.8474 90.473 26.7693 90.7789 26.769H91.3436V27.6699H90.7789C90.5831 27.6611 90.3877 27.6927 90.2046 27.7626C90.0216 27.8326 89.8549 27.9395 89.715 28.0766C89.5793 28.2184 89.4737 28.3862 89.4047 28.5699C89.3356 28.7536 89.3046 28.9494 89.3133 29.1455V32.2077H88.3049L88.3032 26.7892Z" fill="#00368C"/>
<path d="M95.7575 31.7186C95.5613 31.5204 95.4082 31.2837 95.3082 31.0233C95.2081 30.7629 95.1631 30.4847 95.176 30.206V28.7993C95.1635 28.519 95.2091 28.2392 95.3101 27.9774C95.411 27.7156 95.5651 27.4776 95.7626 27.2783C95.9696 27.0832 96.2138 26.9317 96.4806 26.8329C96.7474 26.7342 97.0313 26.6902 97.3155 26.7035H98.2264C98.5106 26.6904 98.7945 26.7345 99.0613 26.8332C99.328 26.932 99.5722 27.0833 99.7794 27.2783C99.9769 27.4776 100.131 27.7156 100.232 27.9774C100.333 28.2392 100.378 28.519 100.366 28.7993V30.2094C100.378 30.4887 100.331 30.7675 100.229 31.0279C100.127 31.2883 99.9724 31.5246 99.7743 31.722C99.5663 31.9173 99.3213 32.0689 99.0537 32.1679C98.7861 32.2669 98.5014 32.3113 98.2163 32.2985H97.2937C97.0117 32.311 96.7301 32.266 96.466 32.1663C96.2019 32.0667 95.9609 31.9143 95.7575 31.7186ZM98.2046 31.4043C98.3605 31.4114 98.5161 31.3851 98.6611 31.3271C98.806 31.2691 98.9369 31.1809 99.0449 31.0682C99.2634 30.8199 99.3762 30.496 99.3592 30.1657V28.8312C99.3763 28.5023 99.2655 28.1795 99.05 27.9304C98.9457 27.8184 98.8183 27.7304 98.6767 27.6724C98.5351 27.6143 98.3827 27.5877 98.2298 27.5943H97.3105C97.1576 27.5877 97.0051 27.6143 96.8635 27.6724C96.7219 27.7304 96.5946 27.8184 96.4903 27.9304C96.2748 28.1795 96.164 28.5023 96.181 28.8312V30.1657C96.1639 30.4943 96.2727 30.8171 96.4853 31.0682C96.5882 31.1801 96.7143 31.2682 96.8548 31.3262C96.9953 31.3843 97.1468 31.4109 97.2987 31.4043H98.2046Z" fill="#00368C"/>
<path d="M102.245 27.6701H101.311V26.7894H102.245V26.3877C102.245 25.7945 102.413 25.3424 102.732 25.0314C103.052 24.7205 103.529 24.5642 104.144 24.5642H104.675V25.4331H104.144C104.022 25.423 103.899 25.4386 103.783 25.4788C103.668 25.5191 103.561 25.5831 103.472 25.6667C103.31 25.8752 103.233 26.1367 103.255 26.3995V26.7894H104.558V27.6701H103.255V32.2079H102.247L102.245 27.6701Z" fill="#00368C"/>
<path d="M109.18 31.7355C108.988 31.5435 108.837 31.3137 108.738 31.0606C108.639 30.8074 108.594 30.5364 108.605 30.2649V28.8094C108.592 28.529 108.636 28.2487 108.734 27.9856C108.832 27.7225 108.982 27.4819 109.175 27.2783C109.373 27.0843 109.609 26.9332 109.867 26.8343C110.126 26.7354 110.403 26.6909 110.679 26.7035H111.558C112.083 26.6804 112.597 26.861 112.992 27.2077C113.172 27.3764 113.314 27.582 113.408 27.8106C113.502 28.0392 113.545 28.2853 113.535 28.5321H112.535C112.54 28.4077 112.519 28.2837 112.473 28.168C112.427 28.0522 112.358 27.9473 112.269 27.8598C112.173 27.7725 112.061 27.7049 111.939 27.6611C111.817 27.6172 111.688 27.598 111.558 27.6044H110.689C110.543 27.5991 110.397 27.6265 110.263 27.6846C110.129 27.7428 110.009 27.8302 109.913 27.9405C109.706 28.1955 109.6 28.5181 109.615 28.8464V30.2363C109.599 30.5477 109.706 30.8529 109.915 31.085C110.015 31.1909 110.136 31.2743 110.271 31.3296C110.406 31.385 110.551 31.411 110.696 31.406H111.565C111.703 31.4108 111.841 31.3845 111.968 31.3289C112.095 31.2734 112.207 31.19 112.298 31.085C112.491 30.8445 112.589 30.5412 112.573 30.2329H113.573C113.585 30.5064 113.542 30.7794 113.447 31.0359C113.352 31.2925 113.206 31.5275 113.019 31.7271C112.829 31.9178 112.602 32.067 112.352 32.1651C112.102 32.2632 111.834 32.3081 111.565 32.2968H110.684C110.409 32.3078 110.134 32.2638 109.876 32.1675C109.617 32.0711 109.381 31.9242 109.18 31.7355Z" fill="#00368C"/>
<path d="M115.201 31.7186C115.005 31.5198 114.853 31.2829 114.753 31.0226C114.653 30.7624 114.608 30.4844 114.621 30.206V28.7993C114.608 28.519 114.654 28.2391 114.755 27.9773C114.856 27.7156 115.01 27.4775 115.207 27.2782C115.414 27.0832 115.658 26.9319 115.924 26.8331C116.191 26.7344 116.475 26.6903 116.758 26.7035H117.671C117.955 26.6904 118.239 26.7346 118.506 26.8333C118.773 26.932 119.017 27.0834 119.224 27.2782C119.421 27.4778 119.575 27.7159 119.676 27.9776C119.777 28.2393 119.823 28.519 119.811 28.7993V30.2093C119.822 30.4887 119.776 30.7674 119.674 31.0278C119.572 31.2882 119.417 31.5246 119.219 31.7219C119.011 31.9172 118.766 32.0688 118.498 32.1678C118.231 32.2668 117.946 32.3112 117.661 32.2984H116.737C116.455 32.3108 116.173 32.2658 115.909 32.1662C115.645 32.0665 115.404 31.9142 115.201 31.7186ZM117.646 31.4043C117.802 31.4114 117.957 31.385 118.102 31.327C118.247 31.2691 118.378 31.1808 118.486 31.0682C118.704 30.8195 118.817 30.4959 118.801 30.1656V28.8312C118.818 28.5022 118.707 28.1794 118.491 27.9303C118.387 27.8185 118.26 27.7305 118.118 27.6725C117.976 27.6145 117.824 27.5878 117.671 27.5942H116.758C116.606 27.5877 116.454 27.6143 116.312 27.6724C116.171 27.7304 116.044 27.8184 115.94 27.9303C115.724 28.1794 115.614 28.5022 115.631 28.8312V30.1656C115.614 30.4939 115.722 30.8164 115.933 31.0682C116.037 31.1801 116.163 31.2682 116.304 31.3262C116.445 31.3843 116.596 31.4109 116.748 31.4043H117.646Z" fill="#00368C"/>
<path d="M121.552 31.7186C121.177 31.3064 120.98 30.7627 121.004 30.206V28.9253C120.997 28.5245 121.086 28.1279 121.265 27.769C121.429 27.4429 121.683 27.171 121.998 26.9858C122.331 26.7978 122.708 26.7027 123.09 26.7102H123.828C124.066 26.7129 124.3 26.7704 124.512 26.8783C124.725 26.9778 124.911 27.1264 125.055 27.3119V24.6228H126.075V32.2228H125.109V31.4514C124.95 31.7048 124.734 31.9172 124.478 32.0715C124.243 32.2166 123.973 32.294 123.697 32.2951H122.991C122.724 32.3059 122.458 32.2601 122.21 32.1607C121.962 32.0614 121.738 31.9107 121.552 31.7186ZM123.737 31.4043C123.907 31.403 124.075 31.3649 124.228 31.2927C124.382 31.2205 124.518 31.1158 124.628 30.9858C124.88 30.7136 125.029 30.3626 125.051 29.9926V28.7657C125.017 28.4456 124.878 28.1459 124.655 27.9136C124.556 27.8107 124.437 27.7292 124.306 27.674C124.174 27.6188 124.033 27.5911 123.89 27.5926H123.162C123.005 27.5881 122.848 27.6195 122.704 27.6844C122.56 27.7493 122.433 27.8461 122.332 27.9673C122.108 28.2484 121.994 28.6015 122.011 28.9606V30.1657C121.996 30.4911 122.102 30.8106 122.31 31.0615C122.403 31.1703 122.519 31.257 122.649 31.3152C122.78 31.3734 122.922 31.4015 123.065 31.3976L123.737 31.4043Z" fill="#00368C"/>
<path d="M128.066 31.7454C127.873 31.5607 127.722 31.337 127.622 31.0893C127.522 30.8415 127.476 30.5753 127.487 30.3084V28.8092C127.474 28.528 127.518 28.247 127.618 27.9836C127.718 27.7203 127.87 27.4802 128.066 27.2781C128.271 27.0837 128.512 26.9326 128.776 26.8338C129.04 26.7351 129.321 26.6907 129.603 26.7034H130.493C130.768 26.6871 131.043 26.7293 131.3 26.8274C131.557 26.9254 131.79 27.0769 131.984 27.2719C132.178 27.4669 132.329 27.7009 132.425 27.9584C132.522 28.2159 132.563 28.491 132.545 28.7655V29.7857H128.497V30.3084C128.487 30.4561 128.509 30.6042 128.561 30.7428C128.613 30.8813 128.695 31.0071 128.799 31.1118C128.904 31.2165 129.03 31.2976 129.168 31.3498C129.307 31.4019 129.455 31.4239 129.603 31.4143H130.443C130.729 31.4276 131.011 31.3375 131.236 31.1605C131.334 31.0788 131.413 30.9758 131.465 30.8593C131.518 30.7428 131.543 30.6159 131.539 30.4882H132.527C132.536 30.7364 132.488 30.9833 132.389 31.2107C132.289 31.4382 132.14 31.6404 131.952 31.8025C131.525 32.1525 130.983 32.3321 130.431 32.3067H129.606C129.039 32.3308 128.485 32.1289 128.066 31.7454ZM131.535 28.9824V28.7655C131.551 28.4502 131.449 28.1404 131.248 27.8966C131.154 27.7901 131.038 27.7057 130.907 27.6496C130.777 27.5935 130.635 27.5671 130.493 27.5723H129.603C129.452 27.5657 129.302 27.5924 129.163 27.6505C129.024 27.7086 128.9 27.7967 128.799 27.9084C128.589 28.1625 128.481 28.4863 128.497 28.816V28.984L131.535 28.9824Z" fill="#00368C"/>
<path d="M133.142 32.3049H139.125V33.1957H133.142V32.3049Z" fill="#00368C"/>
</svg>
