<svg width="184" height="24" viewBox="0 0 184 24" fill="none" xmlns="http://www.w3.org/2000/svg">
<path d="M15.1701 3.875H17.9267L11.9042 10.7583L18.9892 20.125H13.4409L9.09589 14.4442L4.12422 20.125H1.36589L7.80755 12.7625L1.01172 3.875H6.69922L10.6267 9.0675L15.1684 3.875H15.1701ZM14.2026 18.475H15.7301L5.87005 5.43833H4.23089L14.2026 18.475Z" fill="white"/>
<g clip-path="url(#clip0_2597_4888)">
<path d="M47.6327 19V8.87953H44.2024V19H47.6327ZM45.918 7.49692C47.1142 7.49692 47.8588 6.71978 47.8588 5.74862C47.8365 4.75556 47.1142 4 45.9407 4C44.7673 4 44 4.75558 44 5.74862C44 6.71983 44.7444 7.49692 45.8956 7.49692H45.9179H45.918ZM49.5313 19H52.9617V13.3482C52.9617 13.0458 52.9839 12.7436 53.0745 12.5274C53.3225 11.923 53.8869 11.2971 54.8345 11.2971C56.0758 11.2971 56.5724 12.2252 56.5724 13.5857V18.9999H60.0025V13.1969C60.0025 10.0883 58.3101 8.64193 56.0532 8.64193C54.2027 8.64193 53.3902 9.65626 52.9388 10.3471H52.9617V8.87932H49.5314C49.5764 9.82897 49.5314 18.9998 49.5314 18.9998L49.5313 19Z" fill="white"/>
</g>
<g clip-path="url(#clip1_2597_4888)">
<path d="M96.0023 7.95683C93.7309 7.95683 91.8988 9.76035 91.8988 11.9963C91.8988 14.2322 93.7309 16.0357 96.0023 16.0357C98.2738 16.0357 100.106 14.2322 100.106 11.9963C100.106 9.76035 98.2738 7.95683 96.0023 7.95683ZM96.0023 14.6225C94.5345 14.6225 93.3345 13.4447 93.3345 11.9963C93.3345 10.5478 94.5309 9.37011 96.0023 9.37011C97.4738 9.37011 98.6702 10.5478 98.6702 11.9963C98.6702 13.4447 97.4702 14.6225 96.0023 14.6225ZM101.231 7.7916C101.231 8.31543 100.802 8.73379 100.274 8.73379C99.7416 8.73379 99.3166 8.31191 99.3166 7.7916C99.3166 7.27129 99.7452 6.84941 100.274 6.84941C100.802 6.84941 101.231 7.27129 101.231 7.7916ZM103.949 8.74785C103.888 7.48574 103.595 6.36777 102.656 5.44668C101.72 4.52559 100.584 4.2373 99.3023 4.17402C97.9809 4.1002 94.0202 4.1002 92.6988 4.17402C91.4202 4.23379 90.2845 4.52207 89.3452 5.44316C88.4059 6.36426 88.1166 7.48222 88.0523 8.74433C87.9773 10.0451 87.9773 13.9439 88.0523 15.2447C88.1131 16.5068 88.4059 17.6248 89.3452 18.5459C90.2845 19.467 91.4166 19.7553 92.6988 19.8185C94.0202 19.8924 97.9809 19.8924 99.3023 19.8185C100.584 19.7588 101.72 19.4705 102.656 18.5459C103.592 17.6248 103.884 16.5068 103.949 15.2447C104.024 13.9439 104.024 10.0486 103.949 8.74785ZM102.242 16.6404C101.963 17.3295 101.424 17.8603 100.72 18.1381C99.6666 18.5494 97.1666 18.4545 96.0023 18.4545C94.8381 18.4545 92.3345 18.5459 91.2845 18.1381C90.5845 17.8639 90.0452 17.333 89.7631 16.6404C89.3452 15.6033 89.4416 13.1424 89.4416 11.9963C89.4416 10.8502 89.3488 8.38574 89.7631 7.35215C90.0416 6.66308 90.5809 6.13223 91.2845 5.85449C92.3381 5.44316 94.8381 5.53809 96.0023 5.53809C97.1666 5.53809 99.6702 5.44668 100.72 5.85449C101.42 6.12871 101.959 6.65957 102.242 7.35215C102.659 8.38926 102.563 10.8502 102.563 11.9963C102.563 13.1424 102.659 15.6068 102.242 16.6404Z" fill="white"/>
</g>
<path d="M143.248 5.99485C142.083 5.43041 140.837 5.0202 139.534 4.78662C139.374 5.08606 139.187 5.48881 139.058 5.8092C137.674 5.59361 136.302 5.59361 134.943 5.8092C134.814 5.48881 134.623 5.08606 134.462 4.78662C133.158 5.0202 131.91 5.43192 130.745 5.99784C128.395 9.67487 127.758 13.2606 128.076 16.7954C129.635 18.0006 131.146 18.7327 132.631 19.2118C132.998 18.6893 133.325 18.1338 133.606 17.5484C133.07 17.3373 132.556 17.0768 132.07 16.7744C132.199 16.6756 132.325 16.5723 132.447 16.466C135.409 17.9003 138.627 17.9003 141.553 16.466C141.676 16.5723 141.802 16.6756 141.93 16.7744C141.443 17.0783 140.927 17.3388 140.391 17.5499C140.672 18.1338 140.998 18.6908 141.366 19.2133C142.853 18.7342 144.365 18.0021 145.923 16.7954C146.297 12.6976 145.285 9.14487 143.248 5.99485ZM134.01 14.6215C133.121 14.6215 132.392 13.7621 132.392 12.7156C132.392 11.6691 133.105 10.8082 134.01 10.8082C134.915 10.8082 135.644 11.6676 135.628 12.7156C135.63 13.7621 134.915 14.6215 134.01 14.6215ZM139.99 14.6215C139.101 14.6215 138.372 13.7621 138.372 12.7156C138.372 11.6691 139.085 10.8082 139.99 10.8082C140.895 10.8082 141.624 11.6676 141.608 12.7156C141.608 13.7621 140.895 14.6215 139.99 14.6215Z" fill="white"/>
<path d="M180.262 5.40601H169.738C167.674 5.40601 166 7.13894 166 9.27662V14.7232C166 16.8609 167.674 18.5938 169.738 18.5938H180.262C182.326 18.5938 184 16.8609 184 14.7232V9.27662C184 7.13894 182.326 5.40601 180.262 5.40601ZM177.733 12.2649L172.811 14.6955C172.68 14.7603 172.529 14.6612 172.529 14.5108V9.49775C172.529 9.34518 172.684 9.2463 172.816 9.31526L177.738 11.8978C177.884 11.9745 177.881 12.1918 177.733 12.2649Z" fill="white"/>
<defs>
<clipPath id="clip0_2597_4888">
<rect width="16" height="15" fill="white" transform="translate(44 4)"/>
</clipPath>
<clipPath id="clip1_2597_4888">
<rect width="16" height="18" fill="white" transform="translate(88 3)"/>
</clipPath>
</defs>
</svg>
