
<svg width="113" height="24" viewBox="0 0 113 24" fill="none" xmlns="http://www.w3.org/2000/svg">
<path d="M112.61 10.8571V8.88007H110.155V5.80646L110.073 5.83188L107.767 6.53738L107.721 6.55125V8.88007H104.082V7.58285C104.082 6.97876 104.217 6.51645 104.483 6.20815C104.747 5.90352 105.125 5.74869 105.608 5.74869C105.954 5.74869 106.313 5.83039 106.675 5.99147L106.765 6.03184V3.94974L106.723 3.93411C106.386 3.81299 105.927 3.75195 105.359 3.75195C104.643 3.75195 103.992 3.90773 103.425 4.21658C102.857 4.52583 102.41 4.96734 102.097 5.52875C101.786 6.08948 101.627 6.73707 101.627 7.45371V8.88007H99.9179V10.8571H101.627V19.1859H104.082V10.8571H107.721V16.15C107.721 18.3298 108.749 19.4345 110.777 19.4345C111.11 19.4345 111.461 19.3954 111.819 19.3189C112.184 19.2404 112.432 19.162 112.578 19.0783L112.61 19.0592V17.0639L112.511 17.1299C112.377 17.2188 112.212 17.2913 112.017 17.3451C111.822 17.4 111.659 17.4276 111.532 17.4276C111.057 17.4276 110.706 17.2996 110.488 17.047C110.267 16.7921 110.155 16.3463 110.155 15.7227V10.8571H112.61ZM94.4374 17.4278C93.5466 17.4278 92.8444 17.1324 92.3495 16.5506C91.8515 15.9658 91.5992 15.1321 91.5992 14.0729C91.5992 12.9802 91.8515 12.1249 92.3497 11.5298C92.8449 10.9386 93.5405 10.6386 94.4174 10.6386C95.2684 10.6386 95.9457 10.9251 96.4309 11.4907C96.9186 12.0592 97.166 12.9077 97.166 14.0133C97.166 15.1324 96.9333 15.9921 96.4744 16.5671C96.0187 17.1379 95.3335 17.4278 94.4374 17.4278ZM94.5467 8.63177C92.8472 8.63177 91.4974 9.1297 90.5351 10.1118C89.5734 11.0941 89.0857 12.4533 89.0857 14.1522C89.0857 15.7657 89.5617 17.0636 90.5006 18.0092C91.4395 18.9552 92.7173 19.4343 94.2981 19.4343C95.9455 19.4343 97.2684 18.9295 98.2304 17.9338C99.1923 16.939 99.6796 15.5927 99.6796 13.9335C99.6796 12.2947 99.2223 10.9871 98.32 10.0478C97.4172 9.10809 96.1475 8.63177 94.5467 8.63177ZM85.1288 8.63172C83.9728 8.63172 83.0167 8.92738 82.2862 9.5104C81.5513 10.0968 81.1786 10.8661 81.1786 11.7968C81.1786 12.2806 81.259 12.7104 81.4174 13.0749C81.5767 13.4407 81.8233 13.7626 82.1508 14.0328C82.4759 14.3009 82.9775 14.5817 83.6425 14.8673C84.2014 15.0973 84.6183 15.292 84.8831 15.4453C85.1419 15.5955 85.3257 15.7466 85.4294 15.8937C85.5301 16.0377 85.5814 16.2347 85.5814 16.478C85.5814 17.1703 85.0629 17.5071 83.996 17.5071C83.6002 17.5071 83.1488 17.4246 82.6543 17.2616C82.1595 17.0989 81.6972 16.865 81.2804 16.565L81.1786 16.492V18.8547L81.216 18.8721C81.5633 19.0323 82.001 19.1674 82.517 19.2739C83.032 19.3803 83.4999 19.4345 83.9065 19.4345C85.1609 19.4345 86.171 19.1374 86.9081 18.551C87.6499 17.9605 88.0259 17.1731 88.0259 16.21C88.0259 15.5154 87.8235 14.9196 87.4245 14.4392C87.0284 13.9626 86.3408 13.5252 85.3817 13.1385C84.6176 12.8318 84.1281 12.5772 83.9262 12.3819C83.7316 12.1931 83.6327 11.9261 83.6327 11.588C83.6327 11.2883 83.7547 11.0482 84.0052 10.8537C84.2576 10.6582 84.6089 10.5589 85.0496 10.5589C85.4585 10.5589 85.8769 10.6234 86.2928 10.75C86.7087 10.8765 87.0738 11.046 87.3787 11.2535L87.4789 11.322V9.08071L87.4404 9.06413C87.1591 8.94355 86.7883 8.84038 86.338 8.75664C85.8894 8.67372 85.4825 8.63172 85.1288 8.63172ZM74.7807 17.4278C73.8902 17.4278 73.1877 17.1324 72.6929 16.5506C72.1948 15.9658 71.9429 15.1324 71.9429 14.0729C71.9429 12.9802 72.1951 12.1249 72.6934 11.5298C73.1882 10.9386 73.8837 10.6386 74.761 10.6386C75.6117 10.6386 76.289 10.9251 76.7743 11.4907C77.262 12.0592 77.5094 12.9077 77.5094 14.0133C77.5094 15.1324 77.2766 15.9921 76.8177 16.5671C76.362 17.1379 75.677 17.4278 74.7807 17.4278ZM74.8903 8.63177C73.1904 8.63177 71.8406 9.1297 70.8787 10.1118C69.917 11.0941 69.429 12.4533 69.429 14.1522C69.429 15.7664 69.9053 17.0636 70.8442 18.0092C71.7831 18.9552 73.0607 19.4343 74.6416 19.4343C76.2886 19.4343 77.6119 18.9295 78.5739 17.9338C79.5355 16.939 80.0231 15.5927 80.0231 13.9335C80.0231 12.2947 79.5657 10.9871 78.6632 10.0478C77.7602 9.10809 76.4907 8.63177 74.8903 8.63177ZM65.7036 10.6648V8.88007H63.2794V19.1857H65.7036V13.914C65.7036 13.0175 65.9068 12.2811 66.3078 11.7249C66.7038 11.1753 67.2315 10.8968 67.8757 10.8968C68.094 10.8968 68.3391 10.9328 68.6046 11.004C68.8674 11.0749 69.0577 11.1517 69.1699 11.2325L69.2718 11.3064V8.8624L69.2325 8.84554C69.0067 8.74957 68.6874 8.70118 68.2832 8.70118C67.6741 8.70118 67.1289 8.89693 66.662 9.2823C66.2521 9.62105 65.9558 10.0855 65.7293 10.6648H65.7036ZM58.9381 8.63172C57.826 8.63172 56.834 8.87028 55.9901 9.34034C55.1446 9.81149 54.4907 10.4842 54.0458 11.3397C53.603 12.1931 53.3781 13.1899 53.3781 14.3014C53.3781 15.2751 53.5962 16.1687 54.0271 16.9562C54.4583 17.745 55.0686 18.3622 55.8411 18.7902C56.6125 19.2177 57.5041 19.4345 58.4913 19.4345C59.6433 19.4345 60.6269 19.2041 61.4156 18.75L61.4474 18.7316V16.5107L61.3456 16.5851C60.9884 16.8453 60.5892 17.053 60.1596 17.2026C59.7311 17.3522 59.3405 17.4277 58.998 17.4277C58.0468 17.4277 57.2832 17.1301 56.7289 16.5434C56.1733 15.9557 55.8917 15.1307 55.8917 14.0925C55.8917 13.0477 56.1854 12.2015 56.7644 11.577C57.3414 10.9544 58.1065 10.6387 59.038 10.6387C59.8349 10.6387 60.6113 10.9085 61.3459 11.4413L61.4474 11.5152V9.17505L61.4147 9.15656C61.1382 9.00187 60.7613 8.87409 60.2931 8.77717C59.8271 8.68052 59.3713 8.63172 58.9381 8.63172ZM51.7085 8.8801H49.2842V19.1857H51.7085V8.8801ZM50.5211 4.48983C50.1221 4.48983 49.7741 4.62563 49.4883 4.89478C49.2012 5.16474 49.0555 5.50458 49.0555 5.90559C49.0555 6.30034 49.1994 6.63392 49.4837 6.89668C49.7661 7.15863 50.1152 7.29144 50.5211 7.29144C50.9269 7.29144 51.2773 7.15863 51.5632 6.89709C51.851 6.63392 51.9968 6.30034 51.9968 5.90559C51.9968 5.51858 51.8549 5.18214 51.575 4.90565C51.2955 4.62971 50.9409 4.48983 50.5211 4.48983ZM44.4726 8.11976V19.1856H46.9466V4.80542H43.5225L39.1702 15.4866L34.9466 4.80542H31.3831V19.1856H33.7079V8.11868H33.7879L38.2479 19.1856H40.0024L44.3928 8.11976H44.4726Z" fill="#111111"/>
<path d="M11.5974 11.4041H0.193359V0H11.5974V11.4041Z" fill="#F1511B"/>
<path d="M24.1891 11.4041H12.7852V0H24.1891V11.4041Z" fill="#80CC28"/>
<path d="M11.5972 24H0.193359V12.5959H11.5972V24Z" fill="#00ADEF"/>
<path d="M24.1891 24H12.7852V12.5959H24.1891V24Z" fill="#FBBC09"/>
</svg>
