
<svg width="150" height="150" viewBox="0 0 150 150" fill="none" xmlns="http://www.w3.org/2000/svg">
<path d="M40.6298 56.2495H53.1298" stroke="#292929" stroke-width="4" stroke-linecap="round" stroke-linejoin="round"/>
<path d="M109.379 50V25C109.379 18.0964 114.975 12.5 121.879 12.5" stroke="#292929" stroke-width="4" stroke-linecap="round" stroke-linejoin="round"/>
<path d="M78.1326 112.499V137.499" stroke="#292929" stroke-width="4" stroke-linecap="round"/>
<path d="M109.385 32.2426C103.355 31.2495 95.3795 31.2495 83.6039 31.2495H66.4164C48.1771 31.2495 39.0574 31.2495 32.154 34.9395C26.7031 37.853 22.2386 42.3175 19.3251 47.7684C15.6351 54.6718 15.6351 63.7914 15.6351 82.0308C15.6351 92.9745 15.6351 98.4464 17.8491 102.588C19.5973 105.859 22.2759 108.538 25.5464 110.286C29.6885 112.5 35.1603 112.5 46.1039 112.5H103.916C114.86 112.5 120.332 112.5 124.474 110.286C127.745 108.538 130.423 105.859 132.171 102.588C134.385 98.4464 134.385 92.9745 134.385 82.0308C134.385 63.7914 134.385 54.6718 130.695 47.7684C129.608 45.7342 128.305 43.8374 126.815 42.1073" stroke="#292929" stroke-width="4" stroke-linecap="round"/>
<path d="M78.1389 112.5V68.7503C78.1389 62.944 78.1389 60.0408 77.7539 57.6116C75.6364 44.24 65.1489 33.7528 51.7774 31.635C51.2657 31.554 50.733 31.49 50.1566 31.4395" stroke="#292929" stroke-width="4" stroke-linecap="round"/>
</svg>
