<svg width="60" height="60" viewBox="0 0 60 60" fill="none" xmlns="http://www.w3.org/2000/svg">
<rect width="60" height="60" rx="30" fill="#EDF7FE"/>
<path d="M22.5216 41.0677C21.1185 41.0677 19.9831 40.6523 19.1154 39.8216C18.2662 38.9723 17.8416 37.837 17.8416 36.4154C17.8416 35.9354 17.8785 35.5016 17.9523 35.1139L19.337 27.1939C19.6693 25.3293 20.38 23.8708 21.4693 22.8185C22.577 21.7662 23.9431 21.24 25.5677 21.24H28.5031C29.9616 21.24 31.1062 21.6554 31.937 22.4862C32.7677 23.317 33.1831 24.4339 33.1831 25.837C33.1831 26.2247 33.137 26.677 33.0447 27.1939L31.66 35.1139C31.3277 36.9785 30.617 38.437 29.5277 39.4893C28.4385 40.5416 27.0816 41.0677 25.457 41.0677H22.5216ZM25.4016 39.6831C26.62 39.6831 27.6447 39.277 28.4754 38.4647C29.3247 37.6523 29.8785 36.5354 30.137 35.1139L31.5216 27.1939C31.5954 26.8247 31.6323 26.437 31.6323 26.0308C31.6323 24.9785 31.3462 24.1477 30.7739 23.5385C30.2016 22.9108 29.417 22.597 28.42 22.597H25.5954C24.3585 22.597 23.3247 23.0031 22.4939 23.8154C21.6631 24.6277 21.1185 25.7539 20.86 27.1939L19.4754 35.1139C19.4016 35.4647 19.3647 35.8431 19.3647 36.2493C19.3647 37.3016 19.6508 38.1416 20.2231 38.7693C20.7954 39.3785 21.58 39.6831 22.577 39.6831H25.4016ZM41.3709 23.0677L36.5248 25.3385L36.774 23.8708L41.7309 21.4616H43.1709L39.7648 40.8462H38.2417L41.3709 23.0677Z" fill="#111111"/>
</svg>
