<svg width="354" height="240" viewBox="0 0 354 240" fill="none" xmlns="http://www.w3.org/2000/svg">
<circle cx="179.333" cy="161.668" r="112.06" stroke="url(#paint0_linear_1281_721)" stroke-width="10.6302"/>
<circle cx="179.332" cy="161.668" r="156.353" stroke="url(#paint1_linear_1281_721)" stroke-width="10.6302"/>
<rect x="118.651" y="100.987" width="122.247" height="122.247" rx="61.1237" stroke="url(#paint2_linear_1281_721)" stroke-width="10.6302"/>
<path d="M165.23 153.377H156.101L154.129 155.251H148.659V160.399L146.688 162.272V170.995H155.819L157.79 169.121H163.26V163.974L165.23 162.102V153.377ZM162.308 168.22H149.609V156.154H162.308V168.22Z" fill="#00368C"/>
<path d="M161.053 162.186C161.053 163.143 160.755 164.079 160.195 164.875C159.636 165.67 158.84 166.291 157.91 166.657C156.979 167.024 155.955 167.12 154.967 166.933C153.979 166.746 153.072 166.286 152.359 165.609C151.647 164.932 151.162 164.07 150.965 163.132C150.769 162.193 150.869 161.22 151.255 160.336C151.64 159.451 152.293 158.696 153.13 158.164C153.967 157.632 154.952 157.348 155.959 157.348C157.31 157.348 158.605 157.858 159.561 158.765C160.516 159.672 161.053 160.903 161.053 162.186Z" fill="#FFCE00"/>
<path d="M157.642 162.091L157.129 162.579L158.225 163.619L157.129 164.661L157.642 165.148L159.251 163.619L157.642 162.091Z" fill="#00368C"/>
<path d="M158.342 159.427L153.066 164.439L153.579 164.928L158.856 159.914L158.342 159.427Z" fill="#00368C"/>
<path d="M154.786 161.797L153.691 160.756L154.786 159.714L154.274 159.227L152.664 160.756L154.274 162.284L154.786 161.797Z" fill="#00368C"/>
<path d="M213.206 162.665H168.359V168.811H213.206V162.665Z" fill="#FFCE00"/>
<path d="M170.354 156.338H168.359V155.632H173.201V156.338H171.207V161.604H170.354V156.338Z" fill="#00368C"/>
<path d="M173.992 155.632H174.845V161.606H173.992V155.632Z" fill="#00368C"/>
<path d="M176.086 155.632H176.876L179.057 159.464L181.186 155.632H181.977V161.606H181.143V157.153L179.49 160.087C179.439 160.186 179.371 160.275 179.288 160.352C179.227 160.401 179.149 160.428 179.068 160.426H178.825L176.93 157.153V161.607H176.086V155.632Z" fill="#00368C"/>
<path d="M183.311 161.436C183.247 161.374 183.198 161.3 183.167 161.219C183.135 161.138 183.121 161.052 183.126 160.966V155.632H187.536V156.338H183.98V158.201H187.267V158.901H183.98V160.9H187.536V161.607H183.809C183.718 161.612 183.627 161.599 183.542 161.569C183.456 161.54 183.377 161.494 183.311 161.436Z" fill="#00368C"/>
<path d="M189.199 161.401C188.876 161.219 188.615 160.952 188.449 160.631C188.266 160.271 188.175 159.875 188.184 159.475V157.765C188.175 157.365 188.268 156.968 188.454 156.609C188.623 156.287 188.886 156.019 189.213 155.837C189.559 155.65 189.951 155.556 190.349 155.564H191.301C191.679 155.557 192.052 155.644 192.384 155.815C192.693 155.978 192.945 156.223 193.111 156.519C193.287 156.841 193.375 157.199 193.367 157.561H192.532C192.532 157.179 192.419 156.872 192.195 156.639C192.082 156.523 191.943 156.432 191.789 156.371C191.634 156.311 191.468 156.283 191.301 156.289H190.349C190.169 156.284 189.99 156.318 189.825 156.389C189.661 156.46 189.516 156.566 189.401 156.699C189.159 156.972 189.038 157.333 189.037 157.783V159.455C189.037 159.905 189.154 160.266 189.388 160.539C189.498 160.671 189.638 160.777 189.799 160.848C189.96 160.92 190.136 160.954 190.313 160.949H191.283C191.458 160.955 191.632 160.922 191.791 160.855C191.951 160.787 192.092 160.685 192.204 160.557C192.434 160.298 192.55 159.958 192.55 159.537H193.385C193.393 159.926 193.304 160.31 193.124 160.659C192.961 160.972 192.705 161.233 192.387 161.409C192.051 161.591 191.669 161.682 191.283 161.674H190.313C189.922 161.682 189.537 161.587 189.199 161.401Z" fill="#00368C"/>
<path d="M194.191 155.632H195.045V158.244H198.332V155.632H199.194V161.606H198.332V158.96H195.045V161.606H194.191V155.632Z" fill="#00368C"/>
<path d="M203.948 160.04H201.325L200.715 161.61H199.824L202.259 155.636H202.648C202.908 155.636 203.09 155.77 203.194 156.037L205.448 161.61H204.567L203.948 160.04ZM201.576 159.357H203.696L202.645 156.657H202.637L201.576 159.357Z" fill="#00368C"/>
<path d="M206.164 155.632H207.021V161.606H206.164V155.632Z" fill="#00368C"/>
<path d="M208.258 155.632H209.049L212.372 160.301V155.632H213.207V161.606H212.428L209.095 156.955V161.606H208.258V155.632Z" fill="#00368C"/>
<path d="M170.63 167.096C170.549 167.025 170.484 166.938 170.441 166.841C170.399 166.744 170.379 166.639 170.383 166.534H170.839C170.837 166.587 170.847 166.64 170.867 166.69C170.888 166.739 170.92 166.784 170.96 166.821C171.048 166.897 171.164 166.936 171.282 166.931H171.725C171.832 166.935 171.938 166.912 172.032 166.862C172.067 166.844 172.096 166.817 172.117 166.785C172.137 166.752 172.148 166.715 172.148 166.677V166.539C172.148 166.514 172.142 166.489 172.132 166.466C172.121 166.443 172.105 166.423 172.086 166.406C172.037 166.364 171.977 166.337 171.912 166.326L171.038 166.184C170.873 166.161 170.719 166.092 170.595 165.985C170.543 165.941 170.501 165.887 170.473 165.826C170.444 165.766 170.429 165.7 170.429 165.634V165.476C170.427 165.388 170.447 165.301 170.487 165.221C170.528 165.142 170.588 165.074 170.663 165.021C170.849 164.899 171.072 164.839 171.297 164.85H171.72C171.941 164.839 172.158 164.91 172.326 165.046C172.402 165.111 172.462 165.191 172.501 165.281C172.541 165.37 172.559 165.467 172.556 165.564H172.097C172.098 165.518 172.089 165.473 172.07 165.43C172.051 165.388 172.024 165.349 171.989 165.318C171.953 165.286 171.911 165.261 171.865 165.245C171.818 165.229 171.769 165.222 171.72 165.224H171.307C171.203 165.22 171.1 165.246 171.012 165.298C170.978 165.319 170.951 165.347 170.932 165.38C170.913 165.414 170.903 165.451 170.904 165.489V165.609C170.904 165.635 170.911 165.661 170.923 165.684C170.935 165.707 170.952 165.727 170.974 165.743C171.027 165.784 171.089 165.812 171.156 165.825L172.036 165.973C172.195 165.994 172.343 166.061 172.461 166.164C172.512 166.207 172.553 166.26 172.582 166.319C172.61 166.378 172.625 166.443 172.625 166.508V166.694C172.626 166.782 172.604 166.869 172.561 166.946C172.518 167.024 172.455 167.09 172.379 167.139C172.187 167.26 171.959 167.319 171.729 167.309H171.286C171.047 167.32 170.812 167.244 170.63 167.096Z" fill="#00368C"/>
<path d="M173.424 167.072C173.269 166.901 173.189 166.68 173.2 166.455V164.884H173.668V166.467C173.662 166.584 173.7 166.699 173.774 166.792C173.806 166.832 173.848 166.864 173.896 166.885C173.944 166.907 173.997 166.918 174.05 166.916H174.353C174.426 166.915 174.498 166.9 174.565 166.872C174.632 166.844 174.692 166.804 174.742 166.753C174.862 166.642 174.944 166.499 174.976 166.343V164.884H175.443V167.27H175.001V166.924C174.922 167.034 174.818 167.128 174.698 167.198C174.593 167.266 174.469 167.303 174.342 167.306H174.019C173.908 167.311 173.797 167.292 173.694 167.252C173.591 167.211 173.499 167.15 173.424 167.072Z" fill="#00368C"/>
<path d="M179.538 165.058C179.683 165.219 179.756 165.427 179.744 165.639V167.268H179.277V165.635C179.283 165.531 179.251 165.429 179.186 165.345C179.159 165.311 179.123 165.284 179.083 165.265C179.042 165.246 178.998 165.237 178.953 165.237H178.692C178.632 165.236 178.572 165.247 178.517 165.269C178.462 165.29 178.412 165.323 178.371 165.364C178.28 165.461 178.223 165.582 178.208 165.711V167.27H177.735V165.654C177.741 165.546 177.712 165.439 177.651 165.347C177.627 165.313 177.594 165.284 177.555 165.265C177.515 165.246 177.472 165.236 177.428 165.237H177.172C177.107 165.238 177.044 165.252 176.987 165.279C176.929 165.306 176.879 165.345 176.839 165.393C176.739 165.51 176.678 165.652 176.663 165.802V167.27H176.195V164.883H176.643V165.204C176.704 165.099 176.789 165.009 176.893 164.941C176.982 164.88 177.088 164.847 177.197 164.846H177.489C177.613 164.843 177.735 164.876 177.838 164.941C177.941 165.01 178.022 165.104 178.072 165.213C178.137 165.102 178.231 165.007 178.344 164.939C178.448 164.877 178.569 164.845 178.692 164.846H178.988C179.091 164.842 179.193 164.859 179.287 164.895C179.382 164.932 179.467 164.987 179.538 165.058Z" fill="#00368C"/>
<path d="M183.819 165.058C183.964 165.219 184.038 165.427 184.025 165.639V167.268H183.558V165.635C183.564 165.531 183.532 165.429 183.468 165.345C183.44 165.311 183.405 165.284 183.364 165.265C183.324 165.246 183.279 165.237 183.234 165.237H182.973C182.913 165.236 182.854 165.247 182.798 165.269C182.743 165.29 182.694 165.323 182.653 165.364C182.561 165.461 182.504 165.582 182.489 165.711V167.27H182.016V165.654C182.023 165.546 181.993 165.439 181.933 165.347C181.908 165.313 181.875 165.284 181.836 165.265C181.797 165.246 181.753 165.236 181.709 165.237H181.453C181.389 165.238 181.325 165.252 181.268 165.279C181.21 165.306 181.16 165.345 181.12 165.393C181.021 165.51 180.959 165.652 180.944 165.802V167.27H180.477V164.883H180.925V165.204C180.985 165.099 181.071 165.009 181.174 164.941C181.263 164.88 181.369 164.847 181.478 164.846H181.771C181.895 164.843 182.016 164.876 182.12 164.941C182.223 165.01 182.304 165.104 182.353 165.213C182.418 165.102 182.512 165.007 182.625 164.939C182.73 164.877 182.85 164.845 182.973 164.846H183.27C183.372 164.842 183.474 164.859 183.569 164.895C183.663 164.932 183.749 164.987 183.819 165.058Z" fill="#00368C"/>
<path d="M184.919 167.067C184.829 166.986 184.759 166.887 184.712 166.778C184.666 166.669 184.644 166.551 184.649 166.434V165.774C184.643 165.65 184.664 165.526 184.711 165.41C184.757 165.294 184.828 165.188 184.919 165.099C185.014 165.014 185.125 164.947 185.248 164.903C185.37 164.86 185.501 164.84 185.631 164.846H186.044C186.171 164.839 186.299 164.857 186.418 164.9C186.537 164.944 186.645 165.01 186.735 165.096C186.825 165.182 186.895 165.285 186.94 165.399C186.984 165.512 187.003 165.633 186.995 165.754V166.204H185.118V166.434C185.113 166.499 185.124 166.564 185.148 166.625C185.173 166.686 185.21 166.741 185.259 166.787C185.307 166.834 185.366 166.869 185.43 166.892C185.494 166.915 185.563 166.925 185.631 166.921H186.021C186.153 166.927 186.284 166.887 186.388 166.809C186.434 166.773 186.471 166.728 186.495 166.677C186.519 166.625 186.531 166.569 186.529 166.513H186.988C186.991 166.622 186.969 166.731 186.923 166.831C186.877 166.932 186.808 167.021 186.72 167.092C186.523 167.245 186.274 167.324 186.019 167.314H185.637C185.506 167.32 185.375 167.301 185.252 167.259C185.129 167.216 185.016 167.151 184.919 167.067ZM186.527 165.85V165.754C186.534 165.615 186.487 165.479 186.393 165.372C186.35 165.325 186.296 165.287 186.236 165.263C186.175 165.238 186.11 165.226 186.044 165.229H185.631C185.561 165.226 185.492 165.237 185.427 165.263C185.363 165.289 185.305 165.327 185.259 165.377C185.161 165.488 185.11 165.631 185.118 165.777V165.851L186.527 165.85Z" fill="#00368C"/>
<path d="M187.621 164.884H188.069V165.233C188.141 165.123 188.243 165.034 188.364 164.975C188.488 164.909 188.627 164.875 188.769 164.875H189.03V165.272H188.769C188.678 165.268 188.587 165.282 188.503 165.312C188.418 165.343 188.34 165.39 188.276 165.451C188.213 165.513 188.164 165.587 188.132 165.668C188.1 165.749 188.085 165.835 188.089 165.921V167.27H187.622L187.621 164.884Z" fill="#00368C"/>
<path d="M191.079 167.054C190.988 166.967 190.917 166.863 190.871 166.748C190.824 166.633 190.804 166.511 190.81 166.388V165.769C190.804 165.645 190.825 165.522 190.872 165.407C190.919 165.291 190.99 165.186 191.082 165.099C191.177 165.013 191.291 164.946 191.414 164.903C191.538 164.859 191.67 164.84 191.801 164.846H192.224C192.355 164.84 192.487 164.859 192.611 164.903C192.734 164.946 192.848 165.013 192.944 165.099C193.035 165.186 193.107 165.291 193.153 165.407C193.2 165.522 193.221 165.645 193.215 165.769V166.39C193.221 166.513 193.199 166.635 193.152 166.75C193.105 166.865 193.033 166.969 192.941 167.056C192.845 167.142 192.731 167.209 192.607 167.252C192.483 167.296 192.351 167.315 192.219 167.31H191.791C191.661 167.315 191.53 167.295 191.408 167.252C191.285 167.208 191.173 167.141 191.079 167.054ZM192.214 166.916C192.286 166.919 192.358 166.907 192.425 166.882C192.492 166.856 192.553 166.818 192.603 166.768C192.704 166.659 192.757 166.516 192.749 166.37V165.783C192.757 165.638 192.705 165.496 192.605 165.386C192.557 165.337 192.498 165.298 192.432 165.272C192.367 165.247 192.296 165.235 192.225 165.238H191.799C191.728 165.235 191.658 165.247 191.592 165.272C191.526 165.298 191.467 165.337 191.419 165.386C191.319 165.496 191.268 165.638 191.276 165.783V166.37C191.268 166.515 191.318 166.657 191.417 166.768C191.464 166.817 191.523 166.856 191.588 166.882C191.653 166.907 191.723 166.919 191.794 166.916H192.214Z" fill="#00368C"/>
<path d="M194.086 165.272H193.652V164.884H194.086V164.707C194.086 164.445 194.163 164.246 194.311 164.109C194.459 163.972 194.681 163.904 194.966 163.904H195.212V164.286H194.966C194.909 164.282 194.852 164.289 194.799 164.306C194.745 164.324 194.696 164.352 194.654 164.389C194.579 164.481 194.544 164.596 194.554 164.712V164.884H195.158V165.272H194.554V167.27H194.086L194.086 165.272Z" fill="#00368C"/>
<path d="M197.303 167.062C197.213 166.978 197.144 166.876 197.098 166.765C197.052 166.653 197.031 166.534 197.036 166.414V165.773C197.03 165.65 197.05 165.526 197.096 165.411C197.141 165.295 197.211 165.189 197.3 165.099C197.392 165.014 197.501 164.947 197.621 164.903C197.741 164.86 197.869 164.84 197.998 164.846H198.405C198.648 164.836 198.887 164.915 199.07 165.068C199.153 165.142 199.219 165.233 199.263 165.334C199.306 165.434 199.326 165.543 199.321 165.651H198.858C198.86 165.597 198.85 165.542 198.829 165.491C198.808 165.44 198.776 165.394 198.735 165.355C198.69 165.317 198.638 165.287 198.582 165.268C198.525 165.248 198.465 165.24 198.405 165.243H198.002C197.935 165.24 197.867 165.252 197.805 165.278C197.742 165.304 197.687 165.342 197.642 165.391C197.546 165.503 197.497 165.645 197.504 165.79V166.402C197.497 166.539 197.547 166.673 197.643 166.776C197.69 166.822 197.746 166.859 197.808 166.883C197.871 166.908 197.938 166.919 198.005 166.917H198.408C198.472 166.919 198.536 166.908 198.595 166.883C198.654 166.859 198.706 166.822 198.748 166.776C198.838 166.67 198.883 166.536 198.876 166.4H199.339C199.345 166.521 199.325 166.641 199.281 166.754C199.236 166.867 199.169 166.971 199.082 167.058C198.994 167.142 198.889 167.208 198.773 167.251C198.657 167.295 198.533 167.314 198.408 167.309H198C197.872 167.314 197.745 167.295 197.625 167.252C197.505 167.21 197.396 167.145 197.303 167.062Z" fill="#00368C"/>
<path d="M200.094 167.054C200.003 166.967 199.933 166.862 199.887 166.748C199.84 166.633 199.819 166.511 199.825 166.388V165.769C199.819 165.645 199.841 165.522 199.887 165.407C199.934 165.291 200.006 165.186 200.097 165.099C200.193 165.013 200.306 164.946 200.43 164.903C200.553 164.859 200.685 164.84 200.816 164.845H201.239C201.371 164.84 201.503 164.859 201.626 164.903C201.75 164.946 201.863 165.013 201.959 165.099C202.051 165.187 202.122 165.291 202.169 165.407C202.215 165.522 202.237 165.645 202.231 165.769V166.39C202.236 166.513 202.215 166.635 202.168 166.75C202.12 166.865 202.049 166.969 201.957 167.056C201.86 167.142 201.747 167.209 201.623 167.252C201.499 167.296 201.367 167.315 201.235 167.31H200.806C200.675 167.315 200.545 167.295 200.422 167.251C200.3 167.208 200.188 167.141 200.094 167.054ZM201.228 166.916C201.3 166.919 201.372 166.907 201.439 166.882C201.506 166.856 201.567 166.818 201.617 166.768C201.718 166.658 201.77 166.516 201.763 166.37V165.783C201.771 165.638 201.719 165.496 201.619 165.386C201.571 165.337 201.512 165.298 201.446 165.272C201.381 165.247 201.31 165.235 201.239 165.238H200.816C200.745 165.235 200.675 165.247 200.609 165.272C200.544 165.298 200.485 165.337 200.437 165.386C200.337 165.496 200.285 165.638 200.293 165.783V166.37C200.286 166.515 200.336 166.657 200.434 166.768C200.482 166.817 200.54 166.856 200.605 166.882C200.671 166.907 200.741 166.919 200.812 166.916H201.228Z" fill="#00368C"/>
<path d="M203.036 167.055C202.862 166.873 202.771 166.634 202.782 166.389V165.824C202.779 165.648 202.82 165.473 202.903 165.315C202.979 165.172 203.097 165.052 203.243 164.97C203.397 164.887 203.572 164.845 203.749 164.849H204.091C204.201 164.85 204.31 164.875 204.408 164.923C204.507 164.967 204.593 165.032 204.66 165.114V163.929H205.133V167.277H204.685V166.937C204.611 167.049 204.511 167.142 204.393 167.21C204.284 167.274 204.158 167.308 204.03 167.309H203.703C203.579 167.313 203.456 167.293 203.341 167.249C203.226 167.206 203.122 167.139 203.036 167.055ZM204.049 166.916C204.128 166.916 204.205 166.899 204.277 166.867C204.348 166.835 204.411 166.789 204.462 166.732C204.579 166.612 204.648 166.457 204.658 166.295V165.754C204.642 165.613 204.578 165.481 204.474 165.379C204.429 165.334 204.373 165.298 204.313 165.273C204.252 165.249 204.186 165.237 204.12 165.237H203.783C203.709 165.235 203.637 165.249 203.57 165.278C203.503 165.307 203.444 165.349 203.398 165.403C203.294 165.526 203.241 165.682 203.249 165.84V166.371C203.242 166.514 203.291 166.655 203.388 166.765C203.43 166.813 203.484 166.851 203.545 166.877C203.605 166.903 203.671 166.915 203.737 166.913L204.049 166.916Z" fill="#00368C"/>
<path d="M206.055 167.067C205.966 166.985 205.895 166.887 205.849 166.778C205.803 166.669 205.781 166.551 205.786 166.434V165.774C205.78 165.65 205.801 165.526 205.847 165.41C205.893 165.294 205.964 165.188 206.055 165.099C206.15 165.014 206.261 164.947 206.384 164.903C206.506 164.86 206.637 164.84 206.767 164.846H207.18C207.307 164.839 207.435 164.857 207.554 164.901C207.673 164.944 207.781 165.011 207.871 165.096C207.961 165.182 208.031 165.285 208.076 165.399C208.12 165.512 208.139 165.633 208.131 165.754V166.204H206.254V166.434C206.25 166.499 206.26 166.564 206.284 166.625C206.309 166.686 206.346 166.742 206.395 166.788C206.443 166.834 206.502 166.869 206.566 166.892C206.63 166.915 206.699 166.925 206.767 166.921H207.157C207.289 166.927 207.42 166.887 207.524 166.809C207.57 166.773 207.606 166.728 207.63 166.676C207.655 166.625 207.666 166.569 207.665 166.513H208.123C208.127 166.622 208.105 166.731 208.059 166.831C208.013 166.931 207.943 167.02 207.856 167.092C207.658 167.246 207.407 167.325 207.151 167.314H206.769C206.506 167.325 206.249 167.236 206.055 167.067ZM207.663 165.85V165.754C207.67 165.615 207.623 165.479 207.53 165.372C207.486 165.325 207.432 165.287 207.372 165.263C207.311 165.238 207.246 165.226 207.18 165.229H206.767C206.697 165.226 206.628 165.238 206.563 165.263C206.499 165.289 206.441 165.328 206.395 165.377C206.297 165.489 206.247 165.631 206.254 165.776V165.85L207.663 165.85Z" fill="#00368C"/>
<path d="M208.41 167.313H211.184V167.705H208.41V167.313Z" fill="#00368C"/>
<g filter="url(#filter0_d_1281_721)">
<rect x="13" y="185.504" width="31.09" height="31.09" rx="15.545" fill="white"/>
<path d="M27.0505 200.475H25.1782C24.9228 200.475 24.6779 200.374 24.4967 200.194C24.3155 200.014 24.2128 199.77 24.2109 199.515V197.643C24.2109 197.386 24.3128 197.14 24.4942 196.959C24.6756 196.777 24.9217 196.675 25.1782 196.675H27.0505C27.3058 196.677 27.5501 196.78 27.73 196.961C27.9099 197.142 28.0108 197.387 28.0108 197.643V199.515C28.0108 199.77 27.9096 200.014 27.7295 200.194C27.5495 200.374 27.3052 200.475 27.0505 200.475ZM25.2473 199.439H26.9745V197.712H25.2473V199.439Z" fill="#0060E7"/>
<path d="M31.9177 200.475H30.0385C29.7838 200.475 29.5395 200.374 29.3594 200.194C29.1793 200.014 29.0781 199.77 29.0781 199.515V197.643C29.0781 197.387 29.1791 197.142 29.359 196.961C29.5389 196.78 29.7831 196.677 30.0385 196.675H31.9177C32.173 196.677 32.4173 196.78 32.5972 196.961C32.7771 197.142 32.878 197.387 32.878 197.643V199.515C32.878 199.77 32.7768 200.014 32.5967 200.194C32.4166 200.374 32.1724 200.475 31.9177 200.475ZM30.1145 199.439H31.8417V197.712H30.1145V199.439Z" fill="#0060E7"/>
<path d="M27.0505 205.422H25.1782C24.9217 205.422 24.6756 205.32 24.4942 205.139C24.3128 204.957 24.2109 204.711 24.2109 204.455V202.582C24.2128 202.327 24.3155 202.083 24.4967 201.903C24.6779 201.723 24.9228 201.622 25.1782 201.622H27.0505C27.3052 201.622 27.5495 201.723 27.7295 201.903C27.9096 202.083 28.0108 202.328 28.0108 202.582V204.455C28.0108 204.71 27.9099 204.955 27.73 205.136C27.5501 205.317 27.3058 205.42 27.0505 205.422ZM25.2473 204.386H26.9745V202.658H25.2473V204.386Z" fill="#0060E7"/>
<path d="M31.9177 205.498H30.0385C29.9123 205.498 29.7875 205.473 29.671 205.425C29.5544 205.377 29.4486 205.306 29.3594 205.217C29.2702 205.127 29.1995 205.022 29.1512 204.905C29.103 204.789 29.0781 204.664 29.0781 204.538V202.658C29.0781 202.404 29.1793 202.159 29.3594 201.979C29.5395 201.799 29.7838 201.698 30.0385 201.698H31.9177C32.1718 201.7 32.415 201.802 32.5947 201.981C32.7744 202.161 32.8762 202.404 32.878 202.658V204.538C32.878 204.664 32.8532 204.789 32.8049 204.905C32.7566 205.022 32.6859 205.127 32.5967 205.217C32.5076 205.306 32.4017 205.377 32.2852 205.425C32.1687 205.473 32.0438 205.498 31.9177 205.498ZM30.1145 204.462H31.8417V202.734H30.1145V204.462Z" fill="#0060E7"/>
<path d="M22.3268 198.458C22.1899 198.456 22.0591 198.401 21.9623 198.304C21.8656 198.207 21.8104 198.077 21.8086 197.94V194.831C21.8104 194.694 21.8656 194.563 21.9623 194.466C22.0591 194.369 22.1899 194.314 22.3268 194.312H25.4358C25.5732 194.312 25.705 194.367 25.8022 194.464C25.8993 194.561 25.9539 194.693 25.9539 194.831C25.9539 194.968 25.8993 195.1 25.8022 195.197C25.705 195.294 25.5732 195.349 25.4358 195.349H22.8449V197.94C22.8431 198.077 22.788 198.207 22.6912 198.304C22.5944 198.401 22.4636 198.456 22.3268 198.458Z" fill="#0060E7"/>
<path d="M34.7639 198.458C34.627 198.456 34.4963 198.401 34.3995 198.304C34.3027 198.207 34.2475 198.077 34.2457 197.94V195.349H31.6549C31.5175 195.349 31.3857 195.294 31.2885 195.197C31.1913 195.1 31.1367 194.968 31.1367 194.831C31.1367 194.693 31.1913 194.561 31.2885 194.464C31.3857 194.367 31.5175 194.312 31.6549 194.312H34.7639C34.9008 194.314 35.0315 194.369 35.1283 194.466C35.2251 194.563 35.2803 194.694 35.282 194.831V197.94C35.2803 198.077 35.2251 198.207 35.1283 198.304C35.0315 198.401 34.9008 198.456 34.7639 198.458Z" fill="#0060E7"/>
<path d="M34.7639 207.785H31.6549C31.5175 207.785 31.3857 207.73 31.2885 207.633C31.1913 207.536 31.1367 207.404 31.1367 207.267C31.1367 207.129 31.1913 206.997 31.2885 206.9C31.3857 206.803 31.5175 206.748 31.6549 206.748H34.2457V204.158C34.2457 204.02 34.3003 203.888 34.3975 203.791C34.4947 203.694 34.6265 203.639 34.7639 203.639C34.9013 203.639 35.0331 203.694 35.1303 203.791C35.2275 203.888 35.282 204.02 35.282 204.158V207.267C35.2803 207.403 35.2251 207.534 35.1283 207.631C35.0315 207.728 34.9008 207.783 34.7639 207.785Z" fill="#0060E7"/>
<path d="M25.4358 207.785H22.3268C22.1899 207.783 22.0591 207.728 21.9623 207.631C21.8656 207.534 21.8104 207.403 21.8086 207.267V204.158C21.8086 204.02 21.8632 203.888 21.9604 203.791C22.0575 203.694 22.1893 203.639 22.3268 203.639C22.4642 203.639 22.596 203.694 22.6932 203.791C22.7903 203.888 22.8449 204.02 22.8449 204.158V206.748H25.4358C25.5732 206.748 25.705 206.803 25.8022 206.9C25.8993 206.997 25.9539 207.129 25.9539 207.267C25.9539 207.404 25.8993 207.536 25.8022 207.633C25.705 207.73 25.5732 207.785 25.4358 207.785Z" fill="#0060E7"/>
</g>
<g filter="url(#filter1_d_1281_721)">
<rect x="60.1523" y="107.26" width="31.09" height="31.09" rx="15.545" fill="white"/>
<g clip-path="url(#clip0_1281_721)">
<path d="M75.6968 124.602C75.6039 124.601 75.5131 124.575 75.4342 124.526L68.5944 120.45C68.517 120.405 68.4527 120.34 68.408 120.263C68.3634 120.185 68.3398 120.097 68.3398 120.007C68.3398 119.918 68.3634 119.83 68.408 119.752C68.4527 119.675 68.517 119.61 68.5944 119.565L75.4342 115.489C75.5125 115.439 75.6036 115.412 75.6968 115.412C75.7899 115.412 75.8811 115.439 75.9593 115.489L82.7991 119.565C82.8766 119.61 82.9408 119.675 82.9855 119.752C83.0302 119.83 83.0537 119.918 83.0537 120.007C83.0537 120.097 83.0302 120.185 82.9855 120.263C82.9408 120.34 82.8766 120.405 82.7991 120.45L75.9593 124.526C75.8805 124.575 75.7896 124.601 75.6968 124.602ZM69.8726 120.042L75.6968 123.496L81.521 120.042L75.6968 116.532L69.8726 120.042Z" fill="#E8BB00"/>
<path d="M75.6955 127.434C75.6002 127.436 75.5064 127.41 75.4261 127.358L68.5172 123.213C68.4054 123.139 68.3267 123.025 68.2976 122.894C68.2684 122.763 68.2911 122.626 68.3608 122.511C68.4306 122.397 68.542 122.314 68.6716 122.28C68.8013 122.246 68.9391 122.263 69.0561 122.329L75.6955 126.315L82.335 122.329C82.452 122.263 82.5898 122.246 82.7194 122.28C82.8491 122.314 82.9604 122.397 83.0302 122.511C83.0999 122.626 83.1226 122.763 83.0935 122.894C83.0643 123.025 82.9856 123.139 82.8738 123.213L75.965 127.358C75.8846 127.41 75.7909 127.436 75.6955 127.434Z" fill="#E8BB00"/>
<path d="M75.6955 130.198C75.6002 130.2 75.5064 130.174 75.4261 130.122L68.5172 125.977C68.4054 125.903 68.3267 125.788 68.2976 125.658C68.2684 125.527 68.2911 125.39 68.3608 125.275C68.4306 125.161 68.542 125.078 68.6716 125.044C68.8013 125.01 68.9391 125.027 69.0561 125.093L75.6955 129.079L82.335 125.093C82.3931 125.054 82.4583 125.028 82.5269 125.015C82.5954 125.002 82.6658 125.004 82.7338 125.019C82.8018 125.034 82.8661 125.063 82.9227 125.103C82.9794 125.144 83.0273 125.195 83.0636 125.255C83.0998 125.314 83.1237 125.381 83.1338 125.45C83.1439 125.519 83.14 125.589 83.1222 125.656C83.1045 125.724 83.0734 125.787 83.0307 125.842C82.988 125.897 82.9347 125.943 82.8738 125.977L75.965 130.122C75.8846 130.174 75.7909 130.2 75.6955 130.198Z" fill="#E8BB00"/>
</g>
</g>
<g filter="url(#filter2_d_1281_721)">
<rect x="268.973" y="114.515" width="31.09" height="31.09" rx="15.545" fill="white"/>
<path d="M283.49 131.649C283.421 131.651 283.354 131.638 283.29 131.612C283.227 131.585 283.171 131.546 283.123 131.497L281.742 130.115C281.692 130.066 281.654 130.007 281.627 129.943C281.601 129.878 281.589 129.809 281.59 129.739C281.591 129.67 281.607 129.601 281.635 129.537C281.663 129.474 281.704 129.416 281.755 129.369L283.234 127.918C283.284 127.87 283.343 127.832 283.407 127.807C283.472 127.782 283.541 127.769 283.61 127.771C283.679 127.772 283.748 127.787 283.811 127.814C283.875 127.842 283.932 127.882 283.98 127.932C284.028 127.982 284.066 128.041 284.091 128.105C284.117 128.17 284.129 128.239 284.128 128.308C284.126 128.377 284.112 128.446 284.084 128.509C284.056 128.573 284.016 128.63 283.966 128.678L282.847 129.763L283.828 130.751C283.925 130.848 283.98 130.98 283.98 131.117C283.98 131.254 283.925 131.386 283.828 131.483C283.741 131.58 283.619 131.639 283.49 131.649Z" fill="#5BBA2E"/>
<path d="M287.001 131.649C286.933 131.649 286.866 131.636 286.803 131.61C286.74 131.584 286.683 131.545 286.635 131.497C286.538 131.4 286.484 131.268 286.484 131.131C286.484 130.993 286.538 130.862 286.635 130.765L287.637 129.763L286.525 128.678C286.475 128.628 286.435 128.569 286.408 128.504C286.381 128.439 286.367 128.369 286.367 128.298C286.367 128.228 286.381 128.158 286.408 128.092C286.435 128.027 286.475 127.968 286.525 127.918C286.625 127.817 286.762 127.761 286.905 127.761C286.975 127.761 287.045 127.775 287.11 127.802C287.175 127.829 287.235 127.868 287.285 127.918L288.735 129.369C288.832 129.466 288.887 129.598 288.887 129.735C288.887 129.872 288.832 130.004 288.735 130.101L287.354 131.483C287.263 131.583 287.136 131.642 287.001 131.649Z" fill="#5BBA2E"/>
<path d="M285.265 135.926C284.302 135.919 283.354 135.682 282.501 135.235C282.383 135.17 282.293 135.062 282.252 134.934C282.211 134.805 282.221 134.665 282.28 134.544C282.344 134.424 282.451 134.334 282.581 134.292C282.71 134.251 282.85 134.262 282.971 134.323C283.967 134.835 285.104 135.002 286.205 134.8C287.085 134.626 287.902 134.219 288.572 133.621C289.241 133.023 289.737 132.256 290.009 131.401C290.28 130.546 290.317 129.633 290.115 128.759C289.913 127.884 289.48 127.08 288.861 126.43C288.243 125.781 287.46 125.309 286.597 125.065C285.733 124.821 284.82 124.814 283.952 125.043C283.085 125.273 282.295 125.732 281.666 126.371C281.036 127.01 280.59 127.807 280.373 128.678C280.062 129.971 280.273 131.333 280.961 132.471C281.026 132.587 281.044 132.723 281.012 132.851C280.98 132.98 280.9 133.091 280.788 133.162C280.673 133.227 280.537 133.245 280.408 133.213C280.28 133.181 280.168 133.101 280.097 132.989C279.592 132.155 279.298 131.211 279.238 130.238C279.178 129.265 279.355 128.291 279.754 127.402C280.153 126.512 280.761 125.732 281.527 125.129C282.293 124.526 283.194 124.117 284.153 123.939C285.729 123.645 287.358 123.989 288.681 124.896C290.004 125.803 290.912 127.198 291.207 128.775C291.501 130.352 291.156 131.981 290.249 133.304C289.342 134.626 287.947 135.535 286.37 135.829C286.005 135.892 285.635 135.924 285.265 135.926Z" fill="#5BBA2E"/>
<path d="M279.911 136.278C279.745 136.282 279.581 136.244 279.434 136.167C279.287 136.091 279.162 135.979 279.07 135.841C278.979 135.703 278.923 135.544 278.91 135.379C278.896 135.213 278.924 135.048 278.992 134.896L280.049 132.533C280.076 132.47 280.115 132.412 280.165 132.364C280.215 132.316 280.274 132.279 280.338 132.255C280.403 132.23 280.472 132.219 280.541 132.222C280.61 132.224 280.678 132.241 280.74 132.271C280.866 132.328 280.964 132.433 281.013 132.562C281.062 132.692 281.059 132.835 281.002 132.962L280.014 135.207L282.55 134.302C282.615 134.274 282.686 134.259 282.757 134.258C282.828 134.258 282.899 134.273 282.964 134.301C283.029 134.329 283.088 134.371 283.137 134.423C283.185 134.475 283.223 134.536 283.247 134.603C283.27 134.671 283.28 134.742 283.275 134.813C283.27 134.884 283.251 134.953 283.218 135.016C283.185 135.079 283.139 135.135 283.084 135.18C283.028 135.225 282.964 135.257 282.895 135.276L280.236 136.223C280.132 136.261 280.022 136.28 279.911 136.278Z" fill="#5BBA2E"/>
</g>
<g filter="url(#filter3_d_1281_721)">
<rect x="309.91" y="192.24" width="31.09" height="31.09" rx="15.545" fill="white"/>
<path d="M323.009 209.519C322.941 209.519 322.874 209.506 322.811 209.48C322.748 209.454 322.691 209.415 322.643 209.367L321.393 208.116C321.344 208.069 321.305 208.012 321.278 207.949C321.252 207.886 321.238 207.818 321.238 207.75C321.238 207.682 321.252 207.614 321.278 207.551C321.305 207.488 321.344 207.432 321.393 207.384L322.775 206.002C322.872 205.905 323.003 205.851 323.141 205.851C323.278 205.851 323.41 205.905 323.507 206.002C323.604 206.099 323.658 206.231 323.658 206.368C323.658 206.506 323.604 206.637 323.507 206.734L322.491 207.785L323.383 208.634C323.48 208.732 323.534 208.863 323.534 209.001C323.534 209.138 323.48 209.27 323.383 209.367C323.334 209.416 323.276 209.455 323.212 209.481C323.147 209.507 323.079 209.52 323.009 209.519Z" fill="#DB4DBC"/>
<path d="M327.899 209.519C327.831 209.519 327.763 209.506 327.7 209.48C327.637 209.454 327.58 209.415 327.533 209.367C327.435 209.27 327.381 209.138 327.381 209.001C327.381 208.863 327.435 208.732 327.533 208.634L328.417 207.785L327.429 206.797C327.332 206.7 327.277 206.568 327.277 206.431C327.277 206.293 327.332 206.162 327.429 206.064C327.526 205.967 327.658 205.913 327.795 205.913C327.932 205.913 328.064 205.967 328.161 206.064L329.543 207.446C329.592 207.494 329.631 207.551 329.657 207.614C329.684 207.677 329.697 207.744 329.697 207.812C329.697 207.881 329.684 207.948 329.657 208.011C329.631 208.074 329.592 208.131 329.543 208.178L328.292 209.429C328.236 209.47 328.173 209.499 328.105 209.514C328.037 209.53 327.967 209.531 327.899 209.519Z" fill="#DB4DBC"/>
<path d="M324.762 210.161C324.702 210.174 324.641 210.174 324.582 210.161C324.515 210.138 324.453 210.102 324.4 210.054C324.348 210.006 324.306 209.948 324.278 209.883C324.249 209.818 324.234 209.748 324.234 209.676C324.234 209.605 324.249 209.535 324.278 209.47L325.687 205.574C325.711 205.507 325.748 205.446 325.796 205.394C325.844 205.342 325.902 205.301 325.967 205.272C326.032 205.244 326.102 205.229 326.172 205.229C326.243 205.228 326.313 205.242 326.378 205.27C326.446 205.292 326.507 205.329 326.56 205.377C326.612 205.425 326.654 205.483 326.683 205.548C326.711 205.613 326.726 205.683 326.726 205.754C326.726 205.825 326.711 205.896 326.682 205.961L325.218 209.857C325.176 209.944 325.112 210.019 325.032 210.072C324.951 210.126 324.858 210.157 324.762 210.161Z" fill="#DB4DBC"/>
<path d="M329.08 215.212H321.826C321.093 215.212 320.39 214.921 319.872 214.402C319.354 213.884 319.062 213.181 319.062 212.448V203.121C319.062 202.388 319.354 201.685 319.872 201.167C320.39 200.649 321.093 200.358 321.826 200.358H329.08C329.813 200.358 330.516 200.649 331.035 201.167C331.553 201.685 331.844 202.388 331.844 203.121V212.448C331.844 213.181 331.553 213.884 331.035 214.402C330.516 214.921 329.813 215.212 329.08 215.212ZM321.826 201.394C321.368 201.394 320.929 201.576 320.605 201.9C320.281 202.224 320.099 202.663 320.099 203.121V212.448C320.099 212.906 320.281 213.346 320.605 213.67C320.929 213.993 321.368 214.175 321.826 214.175H329.08C329.538 214.175 329.978 213.993 330.302 213.67C330.626 213.346 330.808 212.906 330.808 212.448V203.121C330.808 202.663 330.626 202.224 330.302 201.9C329.978 201.576 329.538 201.394 329.08 201.394H321.826Z" fill="#DB4DBC"/>
</g>
<g filter="url(#filter4_d_1281_721)">
<rect x="129.586" y="192.24" width="31.09" height="31.09" rx="15.545" fill="white"/>
<path d="M147.997 208.206H138.393C138.256 208.205 138.126 208.149 138.029 208.053C137.932 207.956 137.877 207.825 137.875 207.688V204.483C137.877 204.346 137.932 204.215 138.029 204.118C138.126 204.021 138.256 203.966 138.393 203.964H147.997C148.134 203.964 148.266 204.019 148.363 204.116C148.46 204.213 148.515 204.345 148.515 204.483V207.688C148.515 207.826 148.46 207.957 148.363 208.055C148.266 208.152 148.134 208.206 147.997 208.206ZM138.911 207.17H147.478V205.021H138.911V207.17Z" fill="#AC46DC"/>
<path d="M147.997 214.742H138.393C138.256 214.74 138.126 214.685 138.029 214.588C137.932 214.492 137.877 214.361 137.875 214.224V211.018C137.877 210.881 137.932 210.751 138.029 210.654C138.126 210.557 138.256 210.502 138.393 210.5H147.997C148.134 210.5 148.266 210.555 148.363 210.652C148.46 210.749 148.515 210.881 148.515 211.018V214.224C148.515 214.361 148.46 214.493 148.363 214.59C148.266 214.687 148.134 214.742 147.997 214.742ZM138.911 213.706H147.478V211.536H138.911V213.706Z" fill="#AC46DC"/>
<path d="M151.864 213.139H147.995C147.857 213.139 147.726 213.085 147.628 212.988C147.531 212.89 147.477 212.759 147.477 212.621C147.477 212.484 147.531 212.352 147.628 212.255C147.726 212.158 147.857 212.103 147.995 212.103H151.346V201.346C151.346 201.208 151.4 201.077 151.497 200.979C151.594 200.882 151.726 200.828 151.864 200.828C152.001 200.828 152.133 200.882 152.23 200.979C152.327 201.077 152.382 201.208 152.382 201.346V212.621C152.38 212.758 152.325 212.889 152.228 212.986C152.131 213.082 152.001 213.137 151.864 213.139Z" fill="#AC46DC"/>
<path d="M151.864 206.603H147.995C147.857 206.603 147.726 206.549 147.628 206.452C147.531 206.355 147.477 206.223 147.477 206.085C147.477 205.948 147.531 205.816 147.628 205.719C147.726 205.622 147.857 205.567 147.995 205.567H151.864C152.001 205.567 152.133 205.622 152.23 205.719C152.327 205.816 152.382 205.948 152.382 206.085C152.382 206.223 152.327 206.355 152.23 206.452C152.133 206.549 152.001 206.603 151.864 206.603Z" fill="#AC46DC"/>
</g>
<defs>
<filter id="filter0_d_1281_721" x="0.0458422" y="180.322" width="56.9982" height="56.9984" filterUnits="userSpaceOnUse" color-interpolation-filters="sRGB">
<feFlood flood-opacity="0" result="BackgroundImageFix"/>
<feColorMatrix in="SourceAlpha" type="matrix" values="0 0 0 0 0 0 0 0 0 0 0 0 0 0 0 0 0 0 127 0" result="hardAlpha"/>
<feOffset dy="7.77249"/>
<feGaussianBlur stdDeviation="6.47708"/>
<feComposite in2="hardAlpha" operator="out"/>
<feColorMatrix type="matrix" values="0 0 0 0 0 0 0 0 0 0 0 0 0 0 0 0 0 0 0.05 0"/>
<feBlend mode="normal" in2="BackgroundImageFix" result="effect1_dropShadow_1281_721"/>
<feBlend mode="normal" in="SourceGraphic" in2="effect1_dropShadow_1281_721" result="shape"/>
</filter>
<filter id="filter1_d_1281_721" x="47.1982" y="102.079" width="56.9982" height="56.9984" filterUnits="userSpaceOnUse" color-interpolation-filters="sRGB">
<feFlood flood-opacity="0" result="BackgroundImageFix"/>
<feColorMatrix in="SourceAlpha" type="matrix" values="0 0 0 0 0 0 0 0 0 0 0 0 0 0 0 0 0 0 127 0" result="hardAlpha"/>
<feOffset dy="7.77249"/>
<feGaussianBlur stdDeviation="6.47708"/>
<feComposite in2="hardAlpha" operator="out"/>
<feColorMatrix type="matrix" values="0 0 0 0 0 0 0 0 0 0 0 0 0 0 0 0 0 0 0.05 0"/>
<feBlend mode="normal" in2="BackgroundImageFix" result="effect1_dropShadow_1281_721"/>
<feBlend mode="normal" in="SourceGraphic" in2="effect1_dropShadow_1281_721" result="shape"/>
</filter>
<filter id="filter2_d_1281_721" x="256.018" y="109.333" width="56.9982" height="56.9984" filterUnits="userSpaceOnUse" color-interpolation-filters="sRGB">
<feFlood flood-opacity="0" result="BackgroundImageFix"/>
<feColorMatrix in="SourceAlpha" type="matrix" values="0 0 0 0 0 0 0 0 0 0 0 0 0 0 0 0 0 0 127 0" result="hardAlpha"/>
<feOffset dy="7.77249"/>
<feGaussianBlur stdDeviation="6.47708"/>
<feComposite in2="hardAlpha" operator="out"/>
<feColorMatrix type="matrix" values="0 0 0 0 0 0 0 0 0 0 0 0 0 0 0 0 0 0 0.05 0"/>
<feBlend mode="normal" in2="BackgroundImageFix" result="effect1_dropShadow_1281_721"/>
<feBlend mode="normal" in="SourceGraphic" in2="effect1_dropShadow_1281_721" result="shape"/>
</filter>
<filter id="filter3_d_1281_721" x="296.956" y="187.058" width="56.9982" height="56.9984" filterUnits="userSpaceOnUse" color-interpolation-filters="sRGB">
<feFlood flood-opacity="0" result="BackgroundImageFix"/>
<feColorMatrix in="SourceAlpha" type="matrix" values="0 0 0 0 0 0 0 0 0 0 0 0 0 0 0 0 0 0 127 0" result="hardAlpha"/>
<feOffset dy="7.77249"/>
<feGaussianBlur stdDeviation="6.47708"/>
<feComposite in2="hardAlpha" operator="out"/>
<feColorMatrix type="matrix" values="0 0 0 0 0 0 0 0 0 0 0 0 0 0 0 0 0 0 0.05 0"/>
<feBlend mode="normal" in2="BackgroundImageFix" result="effect1_dropShadow_1281_721"/>
<feBlend mode="normal" in="SourceGraphic" in2="effect1_dropShadow_1281_721" result="shape"/>
</filter>
<filter id="filter4_d_1281_721" x="116.632" y="187.058" width="56.9982" height="56.9984" filterUnits="userSpaceOnUse" color-interpolation-filters="sRGB">
<feFlood flood-opacity="0" result="BackgroundImageFix"/>
<feColorMatrix in="SourceAlpha" type="matrix" values="0 0 0 0 0 0 0 0 0 0 0 0 0 0 0 0 0 0 127 0" result="hardAlpha"/>
<feOffset dy="7.77249"/>
<feGaussianBlur stdDeviation="6.47708"/>
<feComposite in2="hardAlpha" operator="out"/>
<feColorMatrix type="matrix" values="0 0 0 0 0 0 0 0 0 0 0 0 0 0 0 0 0 0 0.05 0"/>
<feBlend mode="normal" in2="BackgroundImageFix" result="effect1_dropShadow_1281_721"/>
<feBlend mode="normal" in="SourceGraphic" in2="effect1_dropShadow_1281_721" result="shape"/>
</filter>
<linearGradient id="paint0_linear_1281_721" x1="332.142" y1="25.6896" x2="46.8975" y2="198.431" gradientUnits="userSpaceOnUse">
<stop stop-color="#0060E7"/>
<stop offset="1" stop-color="#0060E7" stop-opacity="0"/>
</linearGradient>
<linearGradient id="paint1_linear_1281_721" x1="347.644" y1="-54.9229" x2="17.6641" y2="285.245" gradientUnits="userSpaceOnUse">
<stop stop-color="#FFCE00"/>
<stop offset="1" stop-color="#FFCE00" stop-opacity="0"/>
</linearGradient>
<linearGradient id="paint2_linear_1281_721" x1="238.684" y1="82.3843" x2="125.295" y2="228.55" gradientUnits="userSpaceOnUse">
<stop stop-color="#38C335"/>
<stop offset="1" stop-color="#38C335" stop-opacity="0"/>
</linearGradient>
<clipPath id="clip0_1281_721">
<rect width="16.5813" height="16.5813" fill="white" transform="translate(67.4062 114.515)"/>
</clipPath>
</defs>
</svg>
