<svg width="683" height="278" viewBox="0 0 683 278" fill="none" xmlns="http://www.w3.org/2000/svg">
<circle cx="346.002" cy="139.001" r="216.264" stroke="url(#paint0_linear_1281_721)" stroke-width="20.5151"/>
<circle cx="346.001" cy="139.001" r="301.743" stroke="url(#paint1_linear_1281_721)" stroke-width="20.5151"/>
<rect x="228.894" y="21.8935" width="235.923" height="235.923" rx="117.962" stroke="url(#paint2_linear_1281_721)" stroke-width="20.5151"/>
<path d="M318.785 123H301.166L297.362 126.616H286.806V136.551L283 140.166V157H300.622L304.426 153.384H314.983V143.451L318.785 139.837V123ZM313.147 151.644H288.638V128.359H313.147V151.644Z" fill="#00368C"/>
<path d="M310.724 140C310.724 141.847 310.148 143.653 309.069 145.188C307.989 146.724 306.454 147.922 304.658 148.629C302.862 149.336 300.886 149.521 298.979 149.161C297.073 148.801 295.321 147.912 293.946 146.606C292.571 145.3 291.635 143.636 291.256 141.825C290.876 140.013 291.07 138.136 291.814 136.429C292.558 134.723 293.817 133.264 295.433 132.237C297.05 131.211 298.95 130.663 300.894 130.663C303.5 130.663 306 131.646 307.844 133.397C309.687 135.148 310.723 137.523 310.724 140Z" fill="#FFCE00"/>
<path d="M304.142 139.816L303.152 140.759L305.268 142.765L303.152 144.776L304.142 145.716L307.248 142.765L304.142 139.816Z" fill="#00368C"/>
<path d="M305.489 134.676L295.309 144.349L296.298 145.292L306.482 135.616L305.489 134.676Z" fill="#00368C"/>
<path d="M298.631 139.248L296.517 137.24L298.631 135.23L297.642 134.288L294.535 137.24L297.642 140.19L298.631 139.248Z" fill="#00368C"/>
<path d="M411.373 140.925H324.824V152.785H411.373V140.925Z" fill="#FFCE00"/>
<path d="M328.673 128.715H324.824V127.352H334.169V128.715H330.32V138.876H328.673V128.715Z" fill="#00368C"/>
<path d="M335.691 127.352H337.338V138.88H335.691V127.352Z" fill="#00368C"/>
<path d="M339.734 127.352H341.259L345.469 134.748L349.577 127.352H351.103V138.88H349.494V130.286L346.304 135.949C346.206 136.139 346.074 136.312 345.914 136.46C345.796 136.556 345.645 136.607 345.49 136.603H345.021L341.364 130.286V138.883H339.734V127.352Z" fill="#00368C"/>
<path d="M353.679 138.552C353.557 138.432 353.462 138.29 353.401 138.134C353.339 137.979 353.313 137.812 353.322 137.646V127.352H361.834V128.715H354.97V132.309H361.314V133.66H354.97V137.518H361.834V138.883H354.641C354.465 138.892 354.29 138.867 354.124 138.81C353.959 138.753 353.807 138.665 353.679 138.552Z" fill="#00368C"/>
<path d="M365.038 138.485C364.414 138.134 363.911 137.618 363.591 137C363.237 136.305 363.062 135.54 363.079 134.768V131.468C363.062 130.696 363.24 129.93 363.6 129.237C363.926 128.616 364.434 128.098 365.064 127.747C365.732 127.386 366.49 127.204 367.258 127.22H369.095C369.824 127.207 370.543 127.374 371.184 127.705C371.78 128.02 372.268 128.492 372.588 129.064C372.927 129.684 373.096 130.375 373.081 131.074H371.469C371.469 130.338 371.253 129.745 370.82 129.295C370.601 129.071 370.333 128.894 370.035 128.778C369.738 128.661 369.417 128.607 369.095 128.62H367.258C366.91 128.61 366.564 128.676 366.246 128.813C365.929 128.95 365.649 129.154 365.428 129.41C364.961 129.937 364.727 130.635 364.726 131.503V134.73C364.726 135.597 364.951 136.294 365.402 136.821C365.614 137.077 365.886 137.281 366.196 137.419C366.506 137.556 366.845 137.623 367.187 137.613H369.061C369.398 137.624 369.733 137.561 370.041 137.43C370.348 137.299 370.621 137.103 370.836 136.857C371.281 136.357 371.504 135.701 371.504 134.888H373.116C373.132 135.638 372.959 136.38 372.612 137.053C372.298 137.657 371.804 138.161 371.191 138.501C370.542 138.851 369.805 139.028 369.059 139.013H367.187C366.434 139.026 365.691 138.844 365.038 138.485Z" fill="#00368C"/>
<path d="M374.68 127.352H376.326V132.392H382.671V127.352H384.334V138.88H382.671V133.775H376.326V138.88H374.68V127.352Z" fill="#00368C"/>
<path d="M393.501 135.858H388.439L387.262 138.888H385.543L390.242 127.359H390.993C391.495 127.359 391.845 127.617 392.046 128.133L396.396 138.888H394.697L393.501 135.858ZM388.925 134.541H393.016L390.987 129.329H390.971L388.925 134.541Z" fill="#00368C"/>
<path d="M397.785 127.352H399.439V138.88H397.785V127.352Z" fill="#00368C"/>
<path d="M401.82 127.352H403.346L409.761 136.362V127.352H411.373V138.88H409.869L403.435 129.905V138.88H401.82V127.352Z" fill="#00368C"/>
<path d="M329.208 149.475C329.05 149.338 328.926 149.17 328.844 148.983C328.761 148.795 328.723 148.593 328.732 148.39H329.611C329.607 148.493 329.626 148.596 329.666 148.691C329.706 148.787 329.767 148.873 329.844 148.945C330.014 149.091 330.238 149.167 330.467 149.156H331.321C331.527 149.166 331.733 149.12 331.913 149.023C331.981 148.989 332.037 148.937 332.076 148.875C332.116 148.812 332.137 148.741 332.137 148.668V148.4C332.137 148.352 332.126 148.304 332.106 148.26C332.085 148.216 332.055 148.176 332.017 148.143C331.923 148.063 331.806 148.01 331.682 147.99L329.995 147.715C329.676 147.671 329.379 147.537 329.141 147.332C329.04 147.247 328.96 147.142 328.904 147.025C328.849 146.908 328.821 146.781 328.82 146.653V146.349C328.815 146.179 328.854 146.011 328.932 145.858C329.011 145.705 329.127 145.573 329.271 145.472C329.629 145.235 330.06 145.119 330.495 145.14H331.312C331.738 145.121 332.157 145.256 332.482 145.519C332.627 145.645 332.743 145.8 332.819 145.973C332.895 146.145 332.931 146.332 332.924 146.519H332.039C332.041 146.43 332.023 146.342 331.987 146.261C331.951 146.179 331.898 146.105 331.831 146.043C331.761 145.982 331.679 145.935 331.59 145.904C331.501 145.873 331.406 145.859 331.312 145.863H330.513C330.313 145.855 330.115 145.905 329.945 146.006C329.88 146.046 329.827 146.1 329.79 146.165C329.753 146.229 329.735 146.301 329.736 146.375V146.606C329.737 146.656 329.749 146.705 329.773 146.75C329.796 146.795 329.83 146.834 329.871 146.865C329.973 146.943 330.093 146.997 330.222 147.022L331.921 147.308C332.227 147.349 332.513 147.478 332.742 147.676C332.84 147.76 332.92 147.862 332.974 147.976C333.028 148.091 333.057 148.215 333.057 148.34V148.7C333.06 148.87 333.017 149.037 332.934 149.186C332.851 149.336 332.73 149.464 332.582 149.558C332.212 149.791 331.772 149.906 331.328 149.886H330.474C330.012 149.908 329.559 149.761 329.208 149.475Z" fill="#00368C"/>
<path d="M334.594 149.429C334.295 149.099 334.14 148.673 334.162 148.239V145.206H335.064V148.262C335.054 148.487 335.126 148.709 335.269 148.889C335.332 148.966 335.413 149.028 335.506 149.069C335.598 149.111 335.7 149.131 335.803 149.129H336.386C336.527 149.127 336.666 149.098 336.795 149.044C336.925 148.99 337.041 148.912 337.138 148.815C337.369 148.6 337.527 148.323 337.589 148.022V145.206H338.491V149.812H337.637V149.143C337.484 149.357 337.285 149.538 337.054 149.673C336.849 149.803 336.611 149.876 336.365 149.882H335.742C335.528 149.891 335.314 149.855 335.115 149.776C334.917 149.698 334.739 149.58 334.594 149.429Z" fill="#00368C"/>
<path d="M346.4 145.543C346.679 145.854 346.822 146.256 346.798 146.664V149.807H345.896V146.656C345.908 146.456 345.846 146.258 345.721 146.097C345.669 146.031 345.6 145.978 345.522 145.942C345.444 145.906 345.357 145.887 345.27 145.888H344.767C344.651 145.886 344.537 145.907 344.43 145.949C344.324 145.991 344.228 146.054 344.149 146.134C343.972 146.32 343.862 146.554 343.833 146.803V149.811H342.92V146.693C342.933 146.484 342.877 146.278 342.759 146.101C342.712 146.034 342.648 145.979 342.572 145.942C342.497 145.905 342.413 145.887 342.328 145.888H341.833C341.709 145.89 341.588 145.917 341.476 145.969C341.365 146.021 341.268 146.096 341.191 146.188C340.999 146.415 340.881 146.689 340.851 146.978V149.811H339.949V145.206H340.814V145.824C340.931 145.622 341.096 145.449 341.295 145.317C341.467 145.2 341.672 145.136 341.883 145.133H342.447C342.686 145.127 342.921 145.192 343.12 145.317C343.319 145.449 343.475 145.631 343.571 145.843C343.697 145.627 343.877 145.445 344.096 145.313C344.297 145.194 344.53 145.132 344.767 145.133H345.34C345.537 145.125 345.733 145.158 345.916 145.228C346.099 145.299 346.264 145.406 346.4 145.543Z" fill="#00368C"/>
<path d="M354.657 145.543C354.937 145.854 355.08 146.256 355.056 146.664V149.807H354.154V146.656C354.165 146.456 354.104 146.258 353.979 146.097C353.926 146.031 353.858 145.978 353.78 145.942C353.701 145.906 353.615 145.887 353.528 145.888H353.024C352.909 145.886 352.795 145.907 352.688 145.949C352.582 145.991 352.486 146.054 352.407 146.134C352.23 146.32 352.119 146.554 352.091 146.803V149.811H351.178V146.693C351.191 146.484 351.134 146.278 351.017 146.101C350.97 146.034 350.906 145.979 350.83 145.942C350.755 145.905 350.671 145.887 350.586 145.888H350.091C349.967 145.89 349.845 145.917 349.734 145.969C349.623 146.021 349.526 146.096 349.449 146.188C349.257 146.415 349.139 146.689 349.109 146.978V149.811H348.207V145.206H349.072V145.824C349.189 145.622 349.353 145.449 349.553 145.317C349.724 145.2 349.929 145.136 350.141 145.133H350.704C350.944 145.127 351.179 145.192 351.378 145.317C351.577 145.449 351.733 145.631 351.829 145.843C351.954 145.627 352.135 145.445 352.354 145.313C352.555 145.194 352.788 145.132 353.024 145.133H353.597C353.795 145.125 353.991 145.158 354.174 145.228C354.357 145.299 354.522 145.406 354.657 145.543Z" fill="#00368C"/>
<path d="M356.78 149.419C356.607 149.262 356.471 149.072 356.381 148.862C356.291 148.651 356.25 148.425 356.26 148.198V146.923C356.248 146.684 356.288 146.445 356.378 146.221C356.467 145.997 356.604 145.793 356.78 145.622C356.963 145.457 357.178 145.328 357.415 145.244C357.651 145.16 357.902 145.122 358.154 145.133H358.951C359.197 145.119 359.443 145.155 359.673 145.238C359.903 145.322 360.112 145.45 360.285 145.616C360.459 145.782 360.593 145.981 360.679 146.2C360.766 146.419 360.802 146.653 360.786 146.886V147.753H357.163V148.198C357.155 148.323 357.175 148.449 357.222 148.567C357.269 148.684 357.342 148.791 357.436 148.88C357.529 148.969 357.642 149.038 357.766 149.082C357.89 149.127 358.022 149.146 358.154 149.138H358.906C359.162 149.149 359.414 149.072 359.616 148.922C359.704 148.853 359.774 148.765 359.821 148.666C359.869 148.567 359.891 148.459 359.888 148.351H360.772C360.78 148.562 360.737 148.771 360.648 148.965C360.559 149.158 360.425 149.33 360.256 149.468C359.876 149.764 359.394 149.916 358.903 149.896H358.165C357.912 149.907 357.66 149.871 357.422 149.789C357.185 149.707 356.966 149.582 356.78 149.419ZM359.883 147.071V146.886C359.898 146.618 359.805 146.354 359.625 146.148C359.541 146.057 359.437 145.985 359.321 145.938C359.204 145.89 359.078 145.867 358.951 145.872H358.154C358.02 145.866 357.885 145.889 357.761 145.938C357.637 145.988 357.526 146.063 357.436 146.158C357.246 146.373 357.149 146.649 357.163 146.929V147.072L359.883 147.071Z" fill="#00368C"/>
<path d="M362 145.206H362.865V145.88C363.004 145.669 363.2 145.497 363.433 145.382C363.672 145.256 363.941 145.189 364.215 145.189H364.72V145.955H364.215C364.04 145.947 363.865 145.974 363.701 146.034C363.537 146.093 363.388 146.184 363.263 146.3C363.142 146.421 363.047 146.564 362.985 146.72C362.924 146.876 362.896 147.042 362.904 147.209V149.812H362.002L362 145.206Z" fill="#00368C"/>
<path d="M368.671 149.395C368.495 149.227 368.358 149.026 368.269 148.804C368.179 148.583 368.139 148.347 368.15 148.11V146.914C368.139 146.676 368.18 146.438 368.27 146.215C368.361 145.993 368.498 145.791 368.675 145.621C368.86 145.455 369.079 145.327 369.317 145.243C369.556 145.159 369.81 145.121 370.064 145.133H370.879C371.134 145.121 371.388 145.159 371.626 145.243C371.865 145.327 372.083 145.455 372.269 145.621C372.445 145.791 372.583 145.993 372.674 146.215C372.764 146.438 372.805 146.676 372.793 146.914V148.113C372.804 148.35 372.762 148.587 372.671 148.808C372.58 149.03 372.441 149.231 372.264 149.398C372.078 149.564 371.859 149.693 371.619 149.777C371.38 149.861 371.125 149.899 370.87 149.888H370.045C369.793 149.899 369.541 149.861 369.304 149.776C369.068 149.691 368.853 149.562 368.671 149.395ZM370.86 149.128C370.999 149.134 371.139 149.112 371.268 149.063C371.398 149.013 371.515 148.938 371.612 148.843C371.807 148.632 371.908 148.356 371.893 148.075V146.941C371.908 146.662 371.809 146.387 371.616 146.175C371.523 146.08 371.409 146.005 371.282 145.956C371.156 145.907 371.019 145.884 370.882 145.89H370.06C369.923 145.884 369.787 145.907 369.66 145.956C369.533 146.005 369.419 146.08 369.326 146.175C369.133 146.387 369.034 146.662 369.05 146.941V148.075C369.034 148.355 369.131 148.629 369.322 148.843C369.414 148.938 369.527 149.013 369.652 149.062C369.778 149.111 369.914 149.134 370.049 149.128H370.86Z" fill="#00368C"/>
<path d="M374.473 145.955H373.637V145.206H374.473V144.865C374.473 144.36 374.623 143.976 374.909 143.712C375.194 143.448 375.621 143.315 376.172 143.315H376.647V144.053H376.172C376.062 144.045 375.953 144.058 375.849 144.092C375.745 144.126 375.65 144.181 375.57 144.252C375.426 144.429 375.357 144.651 375.376 144.875V145.206H376.542V145.955H375.376V149.812H374.474L374.473 145.955Z" fill="#00368C"/>
<path d="M380.676 149.411C380.504 149.247 380.37 149.052 380.281 148.837C380.193 148.622 380.152 148.391 380.162 148.161V146.923C380.15 146.685 380.189 146.447 380.277 146.223C380.365 145.999 380.499 145.795 380.672 145.622C380.849 145.457 381.06 145.329 381.291 145.245C381.523 145.16 381.77 145.123 382.018 145.133H382.804C383.274 145.114 383.733 145.267 384.087 145.562C384.248 145.705 384.375 145.88 384.459 146.074C384.543 146.269 384.581 146.478 384.572 146.688H383.678C383.682 146.582 383.663 146.477 383.622 146.378C383.581 146.28 383.519 146.191 383.44 146.116C383.354 146.042 383.254 145.985 383.145 145.947C383.036 145.91 382.92 145.894 382.804 145.899H382.027C381.896 145.895 381.766 145.918 381.645 145.967C381.525 146.017 381.418 146.091 381.332 146.185C381.147 146.402 381.052 146.676 381.066 146.955V148.136C381.051 148.401 381.147 148.66 381.334 148.858C381.423 148.948 381.532 149.019 381.652 149.066C381.773 149.113 381.902 149.135 382.033 149.131H382.81C382.934 149.135 383.057 149.112 383.17 149.065C383.284 149.018 383.385 148.947 383.466 148.858C383.639 148.653 383.726 148.395 383.712 148.133H384.607C384.617 148.366 384.579 148.598 384.494 148.816C384.408 149.034 384.278 149.234 384.111 149.403C383.941 149.566 383.738 149.692 383.514 149.776C383.29 149.859 383.05 149.897 382.81 149.888H382.022C381.776 149.897 381.53 149.86 381.299 149.778C381.068 149.696 380.856 149.571 380.676 149.411Z" fill="#00368C"/>
<path d="M386.064 149.395C385.889 149.226 385.753 149.025 385.663 148.804C385.574 148.583 385.534 148.346 385.545 148.11V146.914C385.534 146.676 385.574 146.438 385.665 146.215C385.755 145.993 385.893 145.791 386.07 145.621C386.255 145.455 386.473 145.327 386.711 145.243C386.95 145.159 387.203 145.121 387.457 145.133H388.274C388.528 145.121 388.782 145.159 389.021 145.243C389.259 145.327 389.478 145.455 389.663 145.621C389.839 145.791 389.977 145.993 390.067 146.216C390.158 146.438 390.199 146.676 390.188 146.914V148.113C390.198 148.35 390.157 148.587 390.065 148.808C389.974 149.03 389.836 149.231 389.659 149.398C389.472 149.564 389.253 149.693 389.014 149.777C388.774 149.861 388.52 149.899 388.265 149.888H387.438C387.186 149.899 386.934 149.861 386.697 149.776C386.461 149.691 386.246 149.562 386.064 149.395ZM388.251 149.128C388.391 149.134 388.53 149.112 388.66 149.063C388.789 149.013 388.906 148.938 389.003 148.843C389.198 148.631 389.299 148.356 389.284 148.075V146.941C389.299 146.662 389.2 146.387 389.008 146.175C388.914 146.08 388.8 146.006 388.674 145.956C388.547 145.907 388.411 145.884 388.274 145.89H387.457C387.321 145.884 387.185 145.907 387.058 145.956C386.932 146.005 386.818 146.08 386.725 146.175C386.532 146.387 386.433 146.662 386.448 146.941V148.075C386.433 148.354 386.53 148.629 386.719 148.843C386.811 148.938 386.925 149.013 387.051 149.062C387.176 149.111 387.312 149.134 387.448 149.128H388.251Z" fill="#00368C"/>
<path d="M391.746 149.396C391.41 149.046 391.234 148.583 391.256 148.11V147.022C391.249 146.681 391.329 146.344 391.489 146.039C391.635 145.762 391.863 145.53 392.144 145.373C392.442 145.213 392.78 145.132 393.122 145.139H393.782C393.995 145.141 394.204 145.19 394.394 145.282C394.584 145.366 394.75 145.493 394.879 145.65V143.365H395.792V149.825H394.927V149.169C394.786 149.384 394.593 149.565 394.364 149.696C394.153 149.819 393.911 149.885 393.664 149.886H393.033C392.794 149.895 392.556 149.856 392.334 149.772C392.112 149.687 391.912 149.559 391.746 149.396ZM393.7 149.129C393.852 149.128 394.002 149.095 394.14 149.034C394.278 148.973 394.399 148.884 394.497 148.773C394.723 148.542 394.856 148.243 394.876 147.929V146.886C394.846 146.614 394.721 146.359 394.521 146.162C394.433 146.074 394.327 146.005 394.209 145.958C394.091 145.911 393.965 145.888 393.837 145.889H393.186C393.045 145.885 392.905 145.912 392.776 145.967C392.648 146.022 392.534 146.104 392.443 146.207C392.243 146.446 392.141 146.746 392.156 147.052V148.076C392.142 148.353 392.238 148.624 392.424 148.837C392.507 148.93 392.611 149.004 392.727 149.053C392.844 149.102 392.971 149.126 393.099 149.123L393.7 149.129Z" fill="#00368C"/>
<path d="M397.572 149.419C397.399 149.262 397.263 149.072 397.174 148.861C397.084 148.651 397.043 148.424 397.053 148.198V146.923C397.041 146.684 397.081 146.445 397.17 146.222C397.259 145.998 397.396 145.794 397.572 145.622C397.754 145.457 397.97 145.328 398.206 145.244C398.442 145.16 398.694 145.122 398.946 145.133H399.743C399.988 145.119 400.234 145.155 400.464 145.239C400.694 145.322 400.903 145.451 401.076 145.617C401.25 145.782 401.385 145.981 401.471 146.2C401.558 146.419 401.594 146.653 401.579 146.886V147.753H397.956V148.198C397.948 148.323 397.967 148.449 398.014 148.567C398.061 148.685 398.133 148.791 398.227 148.88C398.321 148.969 398.433 149.038 398.557 149.083C398.681 149.127 398.814 149.146 398.946 149.138H399.698C399.954 149.149 400.206 149.072 400.407 148.922C400.495 148.852 400.565 148.765 400.612 148.666C400.659 148.567 400.681 148.459 400.678 148.35H401.562C401.57 148.561 401.528 148.771 401.439 148.965C401.35 149.158 401.216 149.33 401.048 149.468C400.665 149.765 400.181 149.918 399.687 149.896H398.949C398.441 149.917 397.946 149.745 397.572 149.419ZM400.675 147.07V146.886C400.689 146.618 400.597 146.355 400.418 146.148C400.334 146.057 400.23 145.985 400.113 145.938C399.996 145.89 399.87 145.867 399.743 145.872H398.946C398.811 145.866 398.677 145.889 398.553 145.938C398.429 145.988 398.317 146.063 398.227 146.158C398.039 146.374 397.942 146.649 397.956 146.929V147.072L400.675 147.07Z" fill="#00368C"/>
<path d="M402.117 149.894H407.47V150.651H402.117V149.894Z" fill="#00368C"/>
<g filter="url(#filter0_d_1281_721)">
<rect x="25" y="185" width="60" height="60" rx="30" fill="white"/>
<path d="M52.1206 213.893H48.5073C48.0145 213.893 47.5417 213.699 47.1921 213.351C46.8424 213.004 46.6441 212.533 46.6406 212.04V208.427C46.6406 207.932 46.8373 207.457 47.1874 207.107C47.5374 206.757 48.0122 206.56 48.5073 206.56H52.1206C52.6134 206.564 53.0848 206.762 53.4319 207.111C53.7791 207.461 53.974 207.934 53.974 208.427V212.04C53.974 212.532 53.7787 213.003 53.4311 213.351C53.0836 213.698 52.6122 213.893 52.1206 213.893ZM48.6406 211.893H51.974V208.56H48.6406V211.893Z" fill="#0060E7"/>
<path d="M61.5073 213.893H57.8807C57.3891 213.893 56.9177 213.698 56.5702 213.351C56.2226 213.003 56.0273 212.532 56.0273 212.04V208.427C56.0273 207.934 56.2222 207.461 56.5694 207.111C56.9165 206.762 57.3879 206.564 57.8807 206.56H61.5073C62.0001 206.564 62.4715 206.762 62.8187 207.111C63.1659 207.461 63.3607 207.934 63.3607 208.427V212.04C63.3607 212.532 63.1654 213.003 62.8178 213.351C62.4703 213.698 61.9989 213.893 61.5073 213.893ZM58.0273 211.893H61.3607V208.56H58.0273V211.893Z" fill="#0060E7"/>
<path d="M52.1206 223.44H48.5073C48.0122 223.44 47.5374 223.243 47.1874 222.893C46.8373 222.543 46.6406 222.068 46.6406 221.573V217.96C46.6441 217.467 46.8424 216.996 47.1921 216.649C47.5417 216.302 48.0145 216.107 48.5073 216.107H52.1206C52.6122 216.107 53.0836 216.302 53.4311 216.65C53.7787 216.997 53.974 217.468 53.974 217.96V221.573C53.974 222.066 53.7791 222.539 53.4319 222.889C53.0848 223.238 52.6134 223.437 52.1206 223.44ZM48.6406 221.44H51.974V218.107H48.6406V221.44Z" fill="#0060E7"/>
<path d="M61.5073 223.587H57.8807C57.6373 223.587 57.3963 223.539 57.1714 223.446C56.9466 223.353 56.7423 223.216 56.5702 223.044C56.3981 222.872 56.2616 222.668 56.1684 222.443C56.0753 222.218 56.0273 221.977 56.0273 221.733V218.107C56.0273 217.615 56.2226 217.144 56.5702 216.796C56.9177 216.449 57.3891 216.253 57.8807 216.253H61.5073C61.9978 216.257 62.4672 216.453 62.814 216.8C63.1608 217.147 63.3572 217.616 63.3607 218.107V221.733C63.3607 221.977 63.3127 222.218 63.2196 222.443C63.1265 222.668 62.9899 222.872 62.8178 223.044C62.6457 223.216 62.4414 223.353 62.2166 223.446C61.9917 223.539 61.7507 223.587 61.5073 223.587ZM58.0273 221.587H61.3607V218.253H58.0273V221.587Z" fill="#0060E7"/>
<path d="M43 210C42.7359 209.997 42.4835 209.89 42.2967 209.703C42.1099 209.516 42.0035 209.264 42 209V203C42.0035 202.736 42.1099 202.484 42.2967 202.297C42.4835 202.11 42.7359 202.003 43 202H49C49.2652 202 49.5196 202.105 49.7071 202.293C49.8946 202.48 50 202.735 50 203C50 203.265 49.8946 203.52 49.7071 203.707C49.5196 203.895 49.2652 204 49 204H44V209C43.9965 209.264 43.8901 209.516 43.7033 209.703C43.5165 209.89 43.2641 209.997 43 210Z" fill="#0060E7"/>
<path d="M67 210C66.7359 209.997 66.4835 209.89 66.2967 209.703C66.1099 209.516 66.0035 209.264 66 209V204H61C60.7348 204 60.4804 203.895 60.2929 203.707C60.1054 203.52 60 203.265 60 203C60 202.735 60.1054 202.48 60.2929 202.293C60.4804 202.105 60.7348 202 61 202H67C67.2641 202.003 67.5165 202.11 67.7033 202.297C67.8901 202.484 67.9965 202.736 68 203V209C67.9965 209.264 67.8901 209.516 67.7033 209.703C67.5165 209.89 67.2641 209.997 67 210Z" fill="#0060E7"/>
<path d="M67 228H61C60.7348 228 60.4804 227.895 60.2929 227.707C60.1054 227.52 60 227.265 60 227C60 226.735 60.1054 226.48 60.2929 226.293C60.4804 226.105 60.7348 226 61 226H66V221C66 220.735 66.1054 220.48 66.2929 220.293C66.4804 220.105 66.7348 220 67 220C67.2652 220 67.5196 220.105 67.7071 220.293C67.8946 220.48 68 220.735 68 221V227C67.9965 227.264 67.8901 227.516 67.7033 227.703C67.5165 227.89 67.2641 227.997 67 228Z" fill="#0060E7"/>
<path d="M49 228H43C42.7359 227.997 42.4835 227.89 42.2967 227.703C42.1099 227.516 42.0035 227.264 42 227V221C42 220.735 42.1054 220.48 42.2929 220.293C42.4804 220.105 42.7348 220 43 220C43.2652 220 43.5196 220.105 43.7071 220.293C43.8946 220.48 44 220.735 44 221V226H49C49.2652 226 49.5196 226.105 49.7071 226.293C49.8946 226.48 50 226.735 50 227C50 227.265 49.8946 227.52 49.7071 227.707C49.5196 227.895 49.2652 228 49 228Z" fill="#0060E7"/>
</g>
<g filter="url(#filter1_d_1281_721)">
<rect x="116" y="34" width="60" height="60" rx="30" fill="white"/>
<path d="M145.999 67.4666C145.82 67.4653 145.644 67.4146 145.492 67.32L132.292 59.4533C132.143 59.3665 132.019 59.2421 131.932 59.0923C131.846 58.9426 131.801 58.7728 131.801 58.6C131.801 58.4272 131.846 58.2574 131.932 58.1076C132.019 57.9579 132.143 57.8334 132.292 57.7466L145.492 49.88C145.643 49.7824 145.819 49.7305 145.999 49.7305C146.179 49.7305 146.355 49.7824 146.505 49.88L159.705 57.7466C159.855 57.8334 159.979 57.9579 160.065 58.1076C160.151 58.2574 160.197 58.4272 160.197 58.6C160.197 58.7728 160.151 58.9426 160.065 59.0923C159.979 59.2421 159.855 59.3665 159.705 59.4533L146.505 67.32C146.353 67.4146 146.178 67.4653 145.999 67.4666ZM134.759 58.6666L145.999 65.3333L157.239 58.6666L145.999 51.8933L134.759 58.6666Z" fill="#E8BB00"/>
<path d="M146 72.9333C145.816 72.9367 145.635 72.8857 145.48 72.7866L132.147 64.7866C131.931 64.6437 131.779 64.4229 131.723 64.1704C131.667 63.9179 131.711 63.6534 131.845 63.4325C131.98 63.2116 132.195 63.0515 132.445 62.9857C132.695 62.92 132.961 62.9537 133.187 63.0799L146 70.7733L158.814 63.0799C159.04 62.9537 159.305 62.92 159.556 62.9857C159.806 63.0515 160.021 63.2116 160.155 63.4325C160.29 63.6534 160.334 63.9179 160.278 64.1704C160.221 64.4229 160.069 64.6437 159.854 64.7866L146.52 72.7866C146.365 72.8857 146.184 72.9367 146 72.9333Z" fill="#E8BB00"/>
<path d="M146 78.2667C145.816 78.2701 145.635 78.2191 145.48 78.12L132.147 70.12C131.931 69.9772 131.779 69.7563 131.723 69.5038C131.667 69.2513 131.711 68.9869 131.845 68.7659C131.98 68.545 132.195 68.3849 132.445 68.3192C132.695 68.2534 132.961 68.2872 133.187 68.4134L146 76.1067L158.814 68.4134C158.926 68.3391 159.052 68.2882 159.184 68.2637C159.316 68.2393 159.452 68.2418 159.583 68.271C159.715 68.3003 159.839 68.3557 159.948 68.434C160.057 68.5123 160.15 68.6118 160.22 68.7267C160.29 68.8416 160.336 68.9693 160.355 69.1024C160.375 69.2355 160.367 69.3711 160.333 69.5012C160.299 69.6313 160.239 69.7532 160.156 69.8595C160.074 69.9658 159.971 70.0544 159.854 70.12L146.52 78.12C146.365 78.2191 146.184 78.2701 146 78.2667Z" fill="#E8BB00"/>
</g>
<g filter="url(#filter2_d_1281_721)">
<rect x="519" y="48" width="60" height="60" rx="30" fill="white"/>
<path d="M547.014 81.0666C546.882 81.0696 546.751 81.045 546.63 80.9945C546.508 80.944 546.398 80.8687 546.307 80.7733L543.641 78.1066C543.546 78.0116 543.471 77.8983 543.42 77.7736C543.37 77.6489 543.345 77.5154 543.348 77.3809C543.35 77.2465 543.38 77.114 543.435 76.9912C543.49 76.8685 543.569 76.7581 543.667 76.6666L546.521 73.8666C546.617 73.7738 546.731 73.7009 546.855 73.652C546.98 73.6031 547.112 73.5792 547.246 73.5817C547.38 73.5842 547.512 73.613 547.634 73.6664C547.757 73.7199 547.868 73.797 547.961 73.8933C548.053 73.9896 548.126 74.1032 548.175 74.2277C548.224 74.3522 548.248 74.4851 548.245 74.6188C548.243 74.7525 548.214 74.8844 548.161 75.007C548.107 75.1296 548.03 75.2405 547.934 75.3333L545.774 77.4266L547.667 79.3333C547.855 79.5208 547.96 79.775 547.96 80.04C547.96 80.305 547.855 80.5591 547.667 80.7466C547.498 80.9326 547.265 81.0471 547.014 81.0666Z" fill="#5BBA2E"/>
<path d="M553.786 81.0667C553.655 81.0674 553.525 81.0417 553.403 80.9914C553.282 80.941 553.172 80.8669 553.08 80.7734C552.892 80.5859 552.787 80.3317 552.787 80.0667C552.787 79.8017 552.892 79.5476 553.08 79.3601L555.013 77.4267L552.866 75.3334C552.77 75.2371 552.694 75.1228 552.641 74.997C552.589 74.8711 552.562 74.7363 552.562 74.6001C552.562 74.4639 552.589 74.329 552.641 74.2032C552.694 74.0774 552.77 73.963 552.866 73.8667C553.061 73.6723 553.325 73.563 553.6 73.563C553.736 73.563 553.871 73.5898 553.996 73.6419C554.122 73.6941 554.237 73.7704 554.333 73.8667L557.133 76.6667C557.32 76.8542 557.425 77.1084 557.425 77.3734C557.425 77.6384 557.32 77.8926 557.133 78.0801L554.466 80.7467C554.291 80.9389 554.046 81.054 553.786 81.0667Z" fill="#5BBA2E"/>
<path d="M550.438 89.32C548.58 89.3068 546.751 88.8496 545.105 87.9867C544.876 87.862 544.704 87.6539 544.625 87.4055C544.545 87.1572 544.564 86.8878 544.678 86.6534C544.801 86.4219 545.009 86.2476 545.258 86.1678C545.507 86.088 545.778 86.1092 546.012 86.2267C547.933 87.2146 550.127 87.5381 552.252 87.1467C553.951 86.8114 555.529 86.0258 556.82 84.872C558.112 83.7182 559.07 82.2387 559.594 80.588C560.118 78.9374 560.189 77.1762 559.799 75.4888C559.41 73.8013 558.574 72.2494 557.379 70.9955C556.185 69.7415 554.675 68.8315 553.009 68.3605C551.342 67.8896 549.58 67.875 547.906 68.3184C546.231 68.7617 544.707 69.6466 543.492 70.8807C542.277 72.1147 541.416 73.6525 540.998 75.3334C540.398 77.8274 540.805 80.4576 542.132 82.6534C542.257 82.8761 542.292 83.1384 542.23 83.3864C542.168 83.6343 542.014 83.8491 541.798 83.9867C541.576 84.1121 541.313 84.1474 541.065 84.0854C540.817 84.0234 540.603 83.8688 540.465 83.6534C539.491 82.0433 538.922 80.2211 538.807 78.343C538.692 76.4649 539.033 74.5869 539.803 72.8697C540.572 71.1526 541.746 69.6476 543.225 68.4837C544.703 67.3197 546.442 66.5316 548.292 66.1867C551.335 65.6191 554.478 66.2836 557.031 68.0339C559.584 69.7843 561.338 72.4771 561.905 75.52C562.473 78.5629 561.808 81.7067 560.058 84.2597C558.308 86.8127 555.615 88.5658 552.572 89.1334C551.867 89.255 551.154 89.3174 550.438 89.32Z" fill="#5BBA2E"/>
<path d="M540.107 90C539.787 90.0076 539.471 89.9342 539.187 89.7866C538.903 89.6389 538.662 89.4218 538.485 89.1556C538.308 88.8893 538.201 88.5826 538.174 88.2639C538.148 87.9453 538.203 87.6251 538.333 87.3333L540.373 82.7733C540.425 82.6505 540.501 82.5395 540.597 82.447C540.693 82.3545 540.807 82.2824 540.932 82.235C541.056 82.1876 541.189 82.166 541.322 82.1715C541.456 82.1769 541.586 82.2093 541.707 82.2666C541.95 82.3772 542.139 82.5794 542.234 82.8291C542.329 83.0787 542.322 83.3558 542.213 83.6L540.307 87.9333L545.2 86.1866C545.326 86.1314 545.462 86.1027 545.599 86.1023C545.737 86.102 545.873 86.1299 545.999 86.1845C546.125 86.2391 546.239 86.319 546.332 86.4195C546.426 86.5199 546.498 86.6386 546.544 86.7681C546.59 86.8976 546.609 87.0353 546.599 87.1724C546.59 87.3095 546.552 87.4431 546.488 87.565C546.425 87.6869 546.337 87.7943 546.23 87.8806C546.123 87.9669 545.999 88.0302 545.867 88.0666L540.733 89.8933C540.533 89.9669 540.32 90.003 540.107 90Z" fill="#5BBA2E"/>
</g>
<g filter="url(#filter3_d_1281_721)">
<rect x="598" y="198" width="60" height="60" rx="30" fill="white"/>
<path d="M623.281 231.347C623.15 231.347 623.02 231.322 622.898 231.271C622.777 231.221 622.667 231.147 622.575 231.053L620.161 228.64C620.067 228.548 619.992 228.438 619.941 228.317C619.89 228.195 619.863 228.065 619.863 227.933C619.863 227.802 619.89 227.671 619.941 227.55C619.992 227.429 620.067 227.319 620.161 227.227L622.828 224.56C623.016 224.373 623.27 224.268 623.535 224.268C623.8 224.268 624.054 224.373 624.241 224.56C624.429 224.748 624.534 225.002 624.534 225.267C624.534 225.532 624.429 225.786 624.241 225.973L622.281 228L624.001 229.64C624.189 229.828 624.294 230.082 624.294 230.347C624.294 230.612 624.189 230.866 624.001 231.053C623.907 231.148 623.795 231.224 623.671 231.274C623.548 231.324 623.415 231.349 623.281 231.347Z" fill="#DB4DBC"/>
<path d="M632.723 231.347C632.591 231.347 632.461 231.322 632.34 231.271C632.218 231.221 632.108 231.147 632.016 231.053C631.829 230.866 631.723 230.612 631.723 230.347C631.723 230.082 631.829 229.828 632.016 229.64L633.723 228L631.816 226.093C631.629 225.906 631.523 225.652 631.523 225.387C631.523 225.122 631.629 224.868 631.816 224.68C632.003 224.493 632.258 224.388 632.523 224.388C632.788 224.388 633.042 224.493 633.229 224.68L635.896 227.347C635.99 227.439 636.065 227.549 636.116 227.67C636.168 227.791 636.194 227.922 636.194 228.053C636.194 228.185 636.168 228.316 636.116 228.437C636.065 228.558 635.99 228.668 635.896 228.76L633.483 231.173C633.374 231.252 633.251 231.309 633.12 231.338C632.99 231.368 632.854 231.371 632.723 231.347Z" fill="#DB4DBC"/>
<path d="M626.67 232.587C626.555 232.611 626.437 232.611 626.323 232.587C626.193 232.543 626.074 232.473 625.973 232.38C625.872 232.288 625.791 232.175 625.736 232.05C625.681 231.924 625.652 231.789 625.652 231.651C625.652 231.514 625.681 231.379 625.736 231.254L628.456 223.734C628.502 223.605 628.573 223.487 628.666 223.387C628.759 223.287 628.871 223.207 628.996 223.152C629.121 223.097 629.256 223.068 629.393 223.067C629.529 223.067 629.664 223.094 629.79 223.147C629.92 223.191 630.039 223.261 630.14 223.354C630.241 223.446 630.322 223.559 630.377 223.684C630.432 223.81 630.461 223.945 630.461 224.082C630.46 224.219 630.432 224.355 630.376 224.48L627.55 232C627.47 232.169 627.346 232.312 627.191 232.416C627.036 232.519 626.856 232.578 626.67 232.587Z" fill="#DB4DBC"/>
<path d="M635.001 242.333H621.001C619.587 242.333 618.23 241.772 617.23 240.771C616.23 239.771 615.668 238.415 615.668 237V219C615.668 217.586 616.23 216.229 617.23 215.229C618.23 214.229 619.587 213.667 621.001 213.667H635.001C636.416 213.667 637.772 214.229 638.773 215.229C639.773 216.229 640.335 217.586 640.335 219V237C640.335 238.415 639.773 239.771 638.773 240.771C637.772 241.772 636.416 242.333 635.001 242.333ZM621.001 215.667C620.117 215.667 619.269 216.018 618.644 216.643C618.019 217.268 617.668 218.116 617.668 219V237C617.668 237.884 618.019 238.732 618.644 239.357C619.269 239.982 620.117 240.333 621.001 240.333H635.001C635.885 240.333 636.733 239.982 637.358 239.357C637.983 238.732 638.335 237.884 638.335 237V219C638.335 218.116 637.983 217.268 637.358 216.643C636.733 216.018 635.885 215.667 635.001 215.667H621.001Z" fill="#DB4DBC"/>
</g>
<g filter="url(#filter4_d_1281_721)">
<rect x="250" y="198" width="60" height="60" rx="30" fill="white"/>
<path d="M285.533 228.813H267C266.736 228.81 266.484 228.703 266.297 228.516C266.11 228.33 266.003 228.077 266 227.813V221.626C266.003 221.362 266.11 221.11 266.297 220.923C266.484 220.736 266.736 220.63 267 220.626H285.533C285.799 220.626 286.053 220.732 286.24 220.919C286.428 221.107 286.533 221.361 286.533 221.626V227.813C286.533 228.078 286.428 228.333 286.24 228.52C286.053 228.708 285.799 228.813 285.533 228.813ZM268 226.813H284.533V222.666H268V226.813Z" fill="#AC46DC"/>
<path d="M285.533 241.427H267C266.736 241.423 266.484 241.317 266.297 241.13C266.11 240.943 266.003 240.691 266 240.427V234.24C266.003 233.976 266.11 233.723 266.297 233.537C266.484 233.35 266.736 233.243 267 233.24H285.533C285.799 233.24 286.053 233.345 286.24 233.533C286.428 233.72 286.533 233.975 286.533 234.24V240.427C286.533 240.692 286.428 240.946 286.24 241.134C286.053 241.321 285.799 241.427 285.533 241.427ZM268 239.427H284.533V235.24H268V239.427Z" fill="#AC46DC"/>
<path d="M293.002 238.333H285.535C285.27 238.333 285.016 238.228 284.828 238.04C284.641 237.853 284.535 237.598 284.535 237.333C284.535 237.068 284.641 236.814 284.828 236.626C285.016 236.439 285.27 236.333 285.535 236.333H292.002V215.573C292.002 215.308 292.107 215.054 292.295 214.866C292.482 214.679 292.737 214.573 293.002 214.573C293.267 214.573 293.521 214.679 293.709 214.866C293.896 215.054 294.002 215.308 294.002 215.573V237.333C293.998 237.597 293.892 237.85 293.705 238.037C293.518 238.223 293.266 238.33 293.002 238.333Z" fill="#AC46DC"/>
<path d="M293.002 225.72H285.535C285.27 225.72 285.016 225.615 284.828 225.427C284.641 225.24 284.535 224.985 284.535 224.72C284.535 224.455 284.641 224.2 284.828 224.013C285.016 223.825 285.27 223.72 285.535 223.72H293.002C293.267 223.72 293.521 223.825 293.709 224.013C293.896 224.2 294.002 224.455 294.002 224.72C294.002 224.985 293.896 225.24 293.709 225.427C293.521 225.615 293.267 225.72 293.002 225.72Z" fill="#AC46DC"/>
</g>
<defs>
<filter id="filter0_d_1281_721" x="0" y="175" width="110" height="110" filterUnits="userSpaceOnUse" color-interpolation-filters="sRGB">
<feFlood flood-opacity="0" result="BackgroundImageFix"/>
<feColorMatrix in="SourceAlpha" type="matrix" values="0 0 0 0 0 0 0 0 0 0 0 0 0 0 0 0 0 0 127 0" result="hardAlpha"/>
<feOffset dy="15"/>
<feGaussianBlur stdDeviation="12.5"/>
<feComposite in2="hardAlpha" operator="out"/>
<feColorMatrix type="matrix" values="0 0 0 0 0 0 0 0 0 0 0 0 0 0 0 0 0 0 0.05 0"/>
<feBlend mode="normal" in2="BackgroundImageFix" result="effect1_dropShadow_1281_721"/>
<feBlend mode="normal" in="SourceGraphic" in2="effect1_dropShadow_1281_721" result="shape"/>
</filter>
<filter id="filter1_d_1281_721" x="91" y="24" width="110" height="110" filterUnits="userSpaceOnUse" color-interpolation-filters="sRGB">
<feFlood flood-opacity="0" result="BackgroundImageFix"/>
<feColorMatrix in="SourceAlpha" type="matrix" values="0 0 0 0 0 0 0 0 0 0 0 0 0 0 0 0 0 0 127 0" result="hardAlpha"/>
<feOffset dy="15"/>
<feGaussianBlur stdDeviation="12.5"/>
<feComposite in2="hardAlpha" operator="out"/>
<feColorMatrix type="matrix" values="0 0 0 0 0 0 0 0 0 0 0 0 0 0 0 0 0 0 0.05 0"/>
<feBlend mode="normal" in2="BackgroundImageFix" result="effect1_dropShadow_1281_721"/>
<feBlend mode="normal" in="SourceGraphic" in2="effect1_dropShadow_1281_721" result="shape"/>
</filter>
<filter id="filter2_d_1281_721" x="494" y="38" width="110" height="110" filterUnits="userSpaceOnUse" color-interpolation-filters="sRGB">
<feFlood flood-opacity="0" result="BackgroundImageFix"/>
<feColorMatrix in="SourceAlpha" type="matrix" values="0 0 0 0 0 0 0 0 0 0 0 0 0 0 0 0 0 0 127 0" result="hardAlpha"/>
<feOffset dy="15"/>
<feGaussianBlur stdDeviation="12.5"/>
<feComposite in2="hardAlpha" operator="out"/>
<feColorMatrix type="matrix" values="0 0 0 0 0 0 0 0 0 0 0 0 0 0 0 0 0 0 0.05 0"/>
<feBlend mode="normal" in2="BackgroundImageFix" result="effect1_dropShadow_1281_721"/>
<feBlend mode="normal" in="SourceGraphic" in2="effect1_dropShadow_1281_721" result="shape"/>
</filter>
<filter id="filter3_d_1281_721" x="573" y="188" width="110" height="110" filterUnits="userSpaceOnUse" color-interpolation-filters="sRGB">
<feFlood flood-opacity="0" result="BackgroundImageFix"/>
<feColorMatrix in="SourceAlpha" type="matrix" values="0 0 0 0 0 0 0 0 0 0 0 0 0 0 0 0 0 0 127 0" result="hardAlpha"/>
<feOffset dy="15"/>
<feGaussianBlur stdDeviation="12.5"/>
<feComposite in2="hardAlpha" operator="out"/>
<feColorMatrix type="matrix" values="0 0 0 0 0 0 0 0 0 0 0 0 0 0 0 0 0 0 0.05 0"/>
<feBlend mode="normal" in2="BackgroundImageFix" result="effect1_dropShadow_1281_721"/>
<feBlend mode="normal" in="SourceGraphic" in2="effect1_dropShadow_1281_721" result="shape"/>
</filter>
<filter id="filter4_d_1281_721" x="225" y="188" width="110" height="110" filterUnits="userSpaceOnUse" color-interpolation-filters="sRGB">
<feFlood flood-opacity="0" result="BackgroundImageFix"/>
<feColorMatrix in="SourceAlpha" type="matrix" values="0 0 0 0 0 0 0 0 0 0 0 0 0 0 0 0 0 0 127 0" result="hardAlpha"/>
<feOffset dy="15"/>
<feGaussianBlur stdDeviation="12.5"/>
<feComposite in2="hardAlpha" operator="out"/>
<feColorMatrix type="matrix" values="0 0 0 0 0 0 0 0 0 0 0 0 0 0 0 0 0 0 0.05 0"/>
<feBlend mode="normal" in2="BackgroundImageFix" result="effect1_dropShadow_1281_721"/>
<feBlend mode="normal" in="SourceGraphic" in2="effect1_dropShadow_1281_721" result="shape"/>
</filter>
<linearGradient id="paint0_linear_1281_721" x1="640.906" y1="-123.422" x2="90.4174" y2="209.949" gradientUnits="userSpaceOnUse">
<stop stop-color="#0060E7"/>
<stop offset="1" stop-color="#0060E7" stop-opacity="0"/>
</linearGradient>
<linearGradient id="paint1_linear_1281_721" x1="670.823" y1="-278.995" x2="34" y2="377.489" gradientUnits="userSpaceOnUse">
<stop stop-color="#FFCE00"/>
<stop offset="1" stop-color="#FFCE00" stop-opacity="0"/>
</linearGradient>
<linearGradient id="paint2_linear_1281_721" x1="460.544" y1="-14.0079" x2="241.716" y2="268.074" gradientUnits="userSpaceOnUse">
<stop stop-color="#38C335"/>
<stop offset="1" stop-color="#38C335" stop-opacity="0"/>
</linearGradient>
</defs>
</svg>
