
<svg width="96" height="24" viewBox="0 0 96 24" fill="none" xmlns="http://www.w3.org/2000/svg">
<path d="M30.9543 18.8981L32.1391 16.1465C33.4193 17.1019 35.12 17.5987 36.8015 17.5987C38.0435 17.5987 38.827 17.121 38.827 16.3949C38.8079 14.3694 31.3938 15.9554 31.3365 10.8726C31.3174 8.29297 33.6104 6.30571 36.8588 6.30571C38.7887 6.30571 40.7187 6.78342 42.0945 7.87259L40.9862 10.6815C39.725 9.87896 38.1582 9.30571 36.6677 9.30571C35.655 9.30571 34.9862 9.78342 34.9862 10.3949C35.0053 12.3821 42.4766 11.293 42.5531 16.1465C42.5531 18.7834 40.3174 20.6369 37.1072 20.6369C34.7569 20.6369 32.5977 20.0828 30.9543 18.8981ZM76.413 15.1528L79.6805 16.9681C78.4576 19.1656 76.1263 20.6369 73.4321 20.6369C69.4767 20.6369 66.2665 17.4267 66.2665 13.4713C66.2665 9.51591 69.4767 6.30571 73.4321 6.30571C76.1072 6.30571 78.4576 7.79616 79.6805 9.9745L76.413 11.7898C75.8206 10.7579 74.7123 10.0509 73.4321 10.0509C71.5404 10.0509 70.0117 11.5796 70.0117 13.4713C70.0117 15.363 71.5404 16.8917 73.4321 16.8917C74.7123 16.8917 75.8206 16.1847 76.413 15.1528ZM44.1964 0.363037H48.2856V20.3694H44.1964V0.363037ZM81.2856 0.363037H85.3748V12.1146L89.999 6.59234H95.0053L89.292 13.242L95.4639 20.3694H90.2283L85.3748 14.3694V20.3694H81.2856V0.363037ZM60.4384 15.1911V11.8089C59.8461 10.8153 58.6231 10.0509 57.2474 10.0509C55.3556 10.0509 53.827 11.5796 53.827 13.4713C53.827 15.363 55.3556 16.8917 57.2474 16.8917C58.6231 16.8917 59.8461 16.1656 60.4384 15.1911ZM60.4384 6.59234H64.5276V20.3503H60.4384V18.7261C59.7696 19.8535 58.1072 20.6369 56.3684 20.6369C52.776 20.6369 49.948 17.4267 49.948 13.4522C49.948 9.47769 52.776 6.30571 56.3684 6.30571C58.1072 6.30571 59.7696 7.08915 60.4384 8.21654V6.59234Z" fill="black"/>
<path d="M5.67398 15.172C5.67398 16.5669 4.54659 17.6942 3.15169 17.6942C1.75678 17.6942 0.629395 16.5669 0.629395 15.172C0.629395 13.777 1.75678 12.6497 3.15169 12.6497H5.67398V15.172ZM6.93513 15.172C6.93513 13.777 8.06252 12.6497 9.45742 12.6497C10.8523 12.6497 11.9797 13.777 11.9797 15.172V21.4777C11.9797 22.8726 10.8523 24 9.45742 24C8.06252 24 6.93513 22.8726 6.93513 21.4777V15.172Z" fill="#E01E5A"/>
<path d="M9.45749 5.04459C8.06258 5.04459 6.9352 3.9172 6.9352 2.52229C6.9352 1.12739 8.06258 0 9.45749 0C10.8524 0 11.9798 1.12739 11.9798 2.52229V5.04459H9.45749ZM9.45749 6.32484C10.8524 6.32484 11.9798 7.45223 11.9798 8.84713C11.9798 10.242 10.8524 11.3694 9.45749 11.3694H3.13265C1.73774 11.3694 0.610352 10.242 0.610352 8.84713C0.610352 7.45223 1.73774 6.32484 3.13265 6.32484H9.45749Z" fill="#36C5F0"/>
<path d="M19.5657 8.84713C19.5657 7.45223 20.6931 6.32484 22.088 6.32484C23.4829 6.32484 24.6103 7.45223 24.6103 8.84713C24.6103 10.242 23.4829 11.3694 22.088 11.3694H19.5657V8.84713ZM18.3046 8.84713C18.3046 10.242 17.1772 11.3694 15.7823 11.3694C14.3874 11.3694 13.26 10.242 13.26 8.84713V2.52229C13.26 1.12739 14.3874 0 15.7823 0C17.1772 0 18.3046 1.12739 18.3046 2.52229V8.84713Z" fill="#2EB67D"/>
<path d="M15.7823 18.9554C17.1772 18.9554 18.3046 20.0828 18.3046 21.4777C18.3046 22.8726 17.1772 24 15.7823 24C14.3874 24 13.26 22.8726 13.26 21.4777V18.9554H15.7823ZM15.7823 17.6942C14.3874 17.6942 13.26 16.5669 13.26 15.172C13.26 13.777 14.3874 12.6497 15.7823 12.6497H22.1071C23.5021 12.6497 24.6294 13.777 24.6294 15.172C24.6294 16.5669 23.5021 17.6942 22.1071 17.6942H15.7823Z" fill="#ECB22E"/>
</svg>
