<svg width="60" height="60" viewBox="0 0 60 60" fill="none" xmlns="http://www.w3.org/2000/svg">
<rect width="60" height="60" rx="30" fill="#EDF7FE"/>
<path d="M19.0606 41.0677C17.6576 41.0677 16.5222 40.6523 15.6545 39.8216C14.8053 38.9723 14.3806 37.837 14.3806 36.4154C14.3806 35.9354 14.4176 35.5016 14.4914 35.1139L15.876 27.1939C16.2083 25.3293 16.9191 23.8708 18.0083 22.8185C19.116 21.7662 20.4822 21.24 22.1068 21.24H25.0422C26.5006 21.24 27.6453 21.6554 28.476 22.4862C29.3068 23.317 29.7222 24.4339 29.7222 25.837C29.7222 26.2247 29.676 26.677 29.5837 27.1939L28.1991 35.1139C27.8668 36.9785 27.156 38.437 26.0668 39.4893C24.9776 40.5416 23.6206 41.0677 21.996 41.0677H19.0606ZM21.9406 39.6831C23.1591 39.6831 24.1837 39.277 25.0145 38.4647C25.8637 37.6523 26.4176 36.5354 26.676 35.1139L28.0606 27.1939C28.1345 26.8247 28.1714 26.437 28.1714 26.0308C28.1714 24.9785 27.8853 24.1477 27.3129 23.5385C26.7406 22.9108 25.956 22.597 24.9591 22.597H22.1345C20.8976 22.597 19.8637 23.0031 19.0329 23.8154C18.2022 24.6277 17.6576 25.7539 17.3991 27.1939L16.0145 35.1139C15.9406 35.4647 15.9037 35.8431 15.9037 36.2493C15.9037 37.3016 16.1899 38.1416 16.7622 38.7693C17.3345 39.3785 18.1191 39.6831 19.116 39.6831H21.9406ZM41.7592 21.24C43.1069 21.24 44.1685 21.5723 44.9439 22.237C45.7377 22.9016 46.1346 23.7877 46.1346 24.8954C46.1346 25.1908 46.1069 25.4954 46.0515 25.8093L45.8577 26.917C45.6915 27.8216 45.3315 28.6247 44.7777 29.3262C44.2239 30.0093 43.5315 30.5262 42.7008 30.877C43.3654 31.1539 43.8915 31.5877 44.2792 32.1785C44.6669 32.7508 44.8608 33.4062 44.8608 34.1447C44.8608 34.4031 44.8331 34.6893 44.7777 35.0031L44.5839 36.1108C44.3254 37.6616 43.67 38.88 42.6177 39.7662C41.5839 40.6339 40.2731 41.0677 38.6854 41.0677H35.9715C34.5685 41.0677 33.4515 40.6893 32.6208 39.9323C31.8085 39.157 31.4023 38.1231 31.4023 36.8308C31.4023 36.4247 31.4392 36.037 31.5131 35.6677H33.0085C32.9531 36 32.9254 36.3047 32.9254 36.5816C32.9254 37.5231 33.2023 38.28 33.7562 38.8523C34.31 39.4062 35.0577 39.6831 35.9992 39.6831H38.6854C39.8669 39.6831 40.8454 39.3693 41.6208 38.7416C42.3962 38.1139 42.8854 37.237 43.0885 36.1108L43.2823 35.0031C43.3192 34.6708 43.3377 34.4308 43.3377 34.2831C43.3377 33.4154 43.0515 32.7508 42.4792 32.2893C41.9069 31.8093 41.0946 31.5693 40.0423 31.5693H37.2731L37.5223 30.24H40.2639C41.3531 30.24 42.2577 29.9447 42.9777 29.3539C43.6977 28.7631 44.15 27.9508 44.3346 26.917L44.5285 25.8093C44.5654 25.6431 44.5839 25.4123 44.5839 25.117C44.5839 24.3416 44.3346 23.7323 43.8362 23.2893C43.3377 22.8277 42.6454 22.597 41.7592 22.597H39.0731C37.9469 22.597 37.0054 22.957 36.2485 23.677C35.4915 24.3785 35.0023 25.357 34.7808 26.6123H33.2577C33.5531 24.9323 34.2085 23.6216 35.2239 22.68C36.2577 21.72 37.5408 21.24 39.0731 21.24H41.7592Z" fill="#111111"/>
</svg>
