<svg width="60" height="60" viewBox="0 0 60 60" fill="none" xmlns="http://www.w3.org/2000/svg">
<rect width="60" height="60" rx="30" fill="#EDF7FE"/>
<path d="M20.2169 41.0677C18.8138 41.0677 17.6784 40.6523 16.8107 39.8216C15.9615 38.9723 15.5369 37.837 15.5369 36.4154C15.5369 35.9354 15.5738 35.5016 15.6477 35.1139L17.0323 27.1939C17.3646 25.3293 18.0753 23.8708 19.1646 22.8185C20.2723 21.7662 21.6384 21.24 23.263 21.24H26.1984C27.6569 21.24 28.8015 21.6554 29.6323 22.4862C30.463 23.317 30.8784 24.4339 30.8784 25.837C30.8784 26.2247 30.8323 26.677 30.74 27.1939L29.3553 35.1139C29.023 36.9785 28.3123 38.437 27.223 39.4893C26.1338 40.5416 24.7769 41.0677 23.1523 41.0677H20.2169ZM23.0969 39.6831C24.3153 39.6831 25.34 39.277 26.1707 38.4647C27.02 37.6523 27.5738 36.5354 27.8323 35.1139L29.2169 27.1939C29.2907 26.8247 29.3277 26.437 29.3277 26.0308C29.3277 24.9785 29.0415 24.1477 28.4692 23.5385C27.8969 22.9108 27.1123 22.597 26.1153 22.597H23.2907C22.0538 22.597 21.02 23.0031 20.1892 23.8154C19.3584 24.6277 18.8138 25.7539 18.5553 27.1939L17.1707 35.1139C17.0969 35.4647 17.06 35.8431 17.06 36.2493C17.06 37.3016 17.3461 38.1416 17.9184 38.7693C18.4907 39.3785 19.2753 39.6831 20.2723 39.6831H23.0969ZM32.1709 39.5447C32.3555 38.5108 32.6601 37.6154 33.0847 36.8585C33.5278 36.1016 34.2478 35.3723 35.2447 34.6708L43.054 29.1323C44.254 28.3016 44.9463 27.36 45.1309 26.3077L45.297 25.4216C45.334 25.1631 45.3524 24.9785 45.3524 24.8677C45.3524 24.1662 45.1032 23.6123 44.6047 23.2062C44.1063 22.8 43.4324 22.597 42.5832 22.597H40.0078C38.937 22.597 38.0324 22.9477 37.294 23.6493C36.5555 24.3323 36.0755 25.2831 35.854 26.5016H34.3586C34.654 24.84 35.3001 23.5477 36.297 22.6247C37.294 21.7016 38.5401 21.24 40.0355 21.24H42.6386C43.9309 21.24 44.9647 21.5539 45.7401 22.1816C46.5155 22.7908 46.9032 23.6123 46.9032 24.6462C46.9032 24.8862 46.8755 25.1447 46.8201 25.4216L46.654 26.3077C46.377 27.7662 45.4447 29.0585 43.857 30.1847L36.297 35.4739C35.4847 36.0462 34.8847 36.6277 34.497 37.2185C34.1278 37.7908 33.8693 38.5385 33.7216 39.4616H44.6047L44.3555 40.8462H31.9493L32.1709 39.5447Z" fill="#111111"/>
</svg>
